<svg id="Layer_1" data-name="Layer 1" xmlns="http://www.w3.org/2000/svg" viewBox="0 0 114.83691 82.426"><defs><style>.cls-1{fill:#d9e021;fill-rule:evenodd;}</style></defs><title>Plant Tracer Assets</title><path class="cls-1" d="M11.57944,49.79071V25.08778H36.848A11.29162,11.29162,0,0,0,47.848,17.80161a12.7143,12.7143,0,0,0,0-9.49A12.185,12.185,0,0,0,46.0776,5.23685H83.37254c3.56676,0,6.46842,2.5691,6.46842,5.70927V49.79071c0,3.14153-2.90847,5.71063-6.46842,5.71063H18.041c-3.55313,0-6.46154-2.56229-6.46154-5.71063h0ZM0,0.87824V25.22816a0.87349,0.87349,0,0,0,.984.87227c3.2015-.39934,7.56012-1.77725,7.56012-5.19136H36.848c10.32132,0,10.32132-15.70493,0-15.70493H8.54415C8.54415,1.78321,4.18553.4053,0.984,0.006A0.87646,0.87646,0,0,0,0,.87824H0ZM38.59789,60.82491L23.19826,76.22454c-3.32007,3.32007,1.79769,8.43784,5.11783,5.111L48.83342,60.82491H38.59789Zm31.45756,0L85.45508,76.22454c3.32144,3.32007-1.78951,8.43784-5.11095,5.111L59.82681,60.82491H70.05545Zm-19.34529,0V78.9c0,4.698,7.233,4.7048,7.233,0v-18.075h-7.233ZM112.49405,5.25048C104.874,5.98237,94.5185,10.07522,94.5185,16.32421V45.45935c0,6.249,10.35547,10.34184,17.97555,11.07372a2.4313,2.4313,0,0,0,1.64368-.39252,1.43253,1.43253,0,0,0,.69918-1.198V6.841a1.44911,1.44911,0,0,0-.69918-1.205A2.45757,2.45757,0,0,0,112.49405,5.25048Z"/></svg>