<svg id="Layer_1" data-name="Layer 1" xmlns="http://www.w3.org/2000/svg" viewBox="0 0 39.85172 39.85255"><defs><style>.cls-1{fill:#d9e021;fill-rule:evenodd;}</style></defs><title>Plant Tracer Assets</title><path class="cls-1" d="M32.38923,0.59027A17.85312,17.85312,0,0,1,36.31165,3.538l0.06361,0.06891a17.81686,17.81686,0,0,1,2.887,3.8594,4.54367,4.54367,0,0,1-.75916,5.46959l-0.00589.0053h0.00589L15.92274,35.52157a1.15645,1.15645,0,0,1-.54066.30508L1.47518,39.80678a1.15683,1.15683,0,0,1-1.43233-.79391,1.21005,1.21005,0,0,1,0-.63842l3.986-13.90691A1.12554,1.12554,0,0,1,4.351,23.9151L26.91375,1.35238a4.54568,4.54568,0,0,1,5.47548-.7621h0ZM4.45473,31.40362a13.38292,13.38292,0,0,1,4.1179,3.96305l5.14743-1.47827-0.85692-3.612-4.38239.40284L8.3023,30.6904h0a1.15007,1.15007,0,0,1-1.185-.53477L5.5413,27.596,4.45473,31.40362h0ZM37.5084,9.36388L15.739,31.13329l0.16662,1.12136L36.86408,11.30212h0a2.27931,2.27931,0,0,0,.6555-1.288,2.24866,2.24866,0,0,0-.01119-0.6502h0ZM8.12979,27.37166L32.27439,3.22407c-0.328-.21562-0.66728-0.417-1.01241-0.61251a2.29467,2.29467,0,0,0-1.42055-.27563,2.25913,2.25913,0,0,0-1.288.6555L6.62261,24.92162Z"/></svg>