<svg id="Layer_1" data-name="Layer 1" xmlns="http://www.w3.org/2000/svg" viewBox="0 0 115.80832 89.09985"><defs><style>.cls-1{fill:#d9e021;fill-rule:evenodd;}</style></defs><title>Plant Tracer Assets</title><path class="cls-1" d="M57.8979,0a57.90091,57.90091,0,0,1,57.91042,57.90346c0,1.56143-.082,3.20489-0.20439,4.75936A16.79511,16.79511,0,0,1,98.876,78.10173H80.73549a29.49583,29.49583,0,0,1-8.8932,7.44718A29.2166,29.2166,0,0,1,35.073,78.10173H16.93237A16.77129,16.77129,0,0,1,.20316,62.66283C0.06813,61.10835,0,59.46489,0,57.90346A57.90091,57.90091,0,0,1,57.8979,0h0ZM41.63015,37.93028l-9.91221-9.91916a2.77255,2.77255,0,0,0-3.92373,3.91816l9.92611,9.91916a2.76762,2.76762,0,0,0,3.90982-3.91816h0ZM32.12533,55.34512H18.09892a2.76969,2.76969,0,1,0,0,5.53938H32.12533a2.76969,2.76969,0,1,0,0-5.53938h0ZM60.66759,32.33668V18.31026a2.77039,2.77039,0,0,0-5.54077,0V32.33668a2.77038,2.77038,0,0,0,5.54077,0h0ZM83.6816,60.8845H97.708a2.76972,2.76972,0,0,0,0-5.53938H83.6816a2.76969,2.76969,0,1,0,0,5.53938h0ZM57.8979,70.10428A12.00263,12.00263,0,0,0,68.55676,52.6088l21.276-21.29129a3.6415,3.6415,0,0,0-2.5653-6.21094,3.61491,3.61491,0,0,0-2.56669,1.072Q74.04747,36.82143,63.40947,47.4629A11.98868,11.98868,0,1,0,57.8979,70.10428h0Zm33.71457-45.9086A47.6666,47.6666,0,0,0,10.23756,57.90346c0,1.35826.05423,2.60145,0.16268,3.95832a6.51332,6.51332,0,0,0,6.53213,6.00116H37.6661v0.0139a5.13108,5.13108,0,0,1,4.27706,2.322,19.01837,19.01837,0,0,0,31.71778.31284,5.10639,5.10639,0,0,1,4.48128-2.64872H98.876a6.54881,6.54881,0,0,0,4.45364-1.7241,6.47413,6.47413,0,0,0,2.0771-4.27705c0.10984-1.35687.15016-2.60006,0.15016-3.95832A47.53043,47.53043,0,0,0,91.61247,24.19568Z"/></svg>