<svg id="Layer_1" data-name="Layer 1" xmlns="http://www.w3.org/2000/svg" viewBox="0 0 533.65686 378.1294"><defs><style>.cls-1{fill:#fff;}</style></defs><title>Plant Tracer Assets</title><path class="cls-1" d="M15.21816,354.88635a7.45532,7.45532,0,0,1,2.7204,2.7204,7.53848,7.53848,0,0,1,0,7.515,7.45532,7.45532,0,0,1-2.7204,2.7204,7.31683,7.31683,0,0,1-3.75819,1.0032H5.74728v9.08H0V353.88315H11.46A7.31683,7.31683,0,0,1,15.21816,354.88635Zm-2.34679,4.72679a2.33866,2.33866,0,0,0-1.61549-.7991H5.611v5.1004h5.64489a2.28982,2.28982,0,0,0,1.61549-.833,2.59617,2.59617,0,0,0,.66349-1.7511A2.47466,2.47466,0,0,0,12.87137,359.61314Z"/><path class="cls-1" d="M54.30758,372.14412h9.45427v5.78119H48.1867V353.88315h6.12089v18.261Z"/><path class="cls-1" d="M105.86087,354.12115l7.85538,23.80415h-5.91679l-1.5643-4.86309H98.78729l-1.5297,4.86309H91.3062l7.88928-23.80415h6.66538Zm-5.47469,13.97627h4.28469l-2.14269-6.73319Z"/><path class="cls-1" d="M154.83006,353.88315h6.12158V377.9253h-6.12158l-7.07289-12.88867V377.9253h-6.15548V353.88315h6.15548l7.07289,12.888v-12.888Z"/><path class="cls-1" d="M208.66165,353.88315V360.004h-6.15548V377.9253h-6.15479V360.004h-6.15548v-6.12089h18.46575Z"/><path class="cls-1" d="M293.09906,353.88315V360.004h-6.15548V377.9253h-6.15479V360.004h-6.15548v-6.12089h18.46575Z"/><path class="cls-1" d="M341.62477,377.9253H335.47l-3.80869-9.08h-3.57069v9.08h-5.74728V353.88315h11.12027a7.4828,7.4828,0,0,1,7.48109,7.48109,7.25235,7.25235,0,0,1-.9181,3.588,7.77691,7.77691,0,0,1-2.4824,2.7031Zm-6.12089-17.58156s-0.21586-.238-0.6462-0.714a2.30618,2.30618,0,0,0-1.5982-.7818V358.814H327.9543v5.1004h5.30519a2.40868,2.40868,0,0,0,1.5982-.833,2.55581,2.55581,0,0,0,.6462-1.7511v-0.98659Z"/><path class="cls-1" d="M383.04438,354.12115l7.85538,23.80415H384.983l-1.5643-4.86309H375.9708l-1.5297,4.86309h-5.95138l7.88928-23.80415h6.66538Zm-5.47469,13.97627h4.28469l-2.14269-6.73319Z"/><path class="cls-1" d="M432.65838,371.75322a6.7082,6.7082,0,0,0,2.0403-1.34359l4.14909,4.14909a12.20409,12.20409,0,0,1-3.91109,2.6353,12.198,12.198,0,0,1-10.77988-.6967,12.1588,12.1588,0,0,1-4.421-4.421,12.19916,12.19916,0,0,1,0-12.19127,12.11465,12.11465,0,0,1,4.421-4.43759,12.19544,12.19544,0,0,1,10.77988-.6974,12.22654,12.22654,0,0,1,3.91109,2.6353l-4.14909,4.14909a6.73377,6.73377,0,0,0-2.0403-1.34359,6.10772,6.10772,0,0,0-2.41459-.4926,6.01224,6.01224,0,0,0-3.12859.8496,6.41679,6.41679,0,0,0-2.2783,2.29559,6.09805,6.09805,0,0,0-.8503,3.14589,6.00634,6.00634,0,0,0,.8503,3.12859,6.4517,6.4517,0,0,0,2.2783,2.2783,6.00634,6.00634,0,0,0,3.12859.8503A6.09631,6.09631,0,0,0,432.65838,371.75322Z"/><path class="cls-1" d="M484.44967,372.72251v5.20279h-16.357V353.88315h16.05116v5.20279h-9.89568v4.21689h8.33138v5.20279h-8.33138v4.21689h10.20148Z"/><path class="cls-1" d="M533.65686,377.9253h-6.15479l-3.80869-9.08h-3.57069v9.08H514.3754V353.88315h11.12027a7.4828,7.4828,0,0,1,7.48109,7.48109,7.25235,7.25235,0,0,1-.9181,3.588,7.77691,7.77691,0,0,1-2.4824,2.7031ZM527.536,360.34375s-0.21586-.238-0.6462-0.714a2.30618,2.30618,0,0,0-1.5982-.7818V358.814h-5.30519v5.1004h5.30519a2.40868,2.40868,0,0,0,1.5982-.833,2.55581,2.55581,0,0,0,.6462-1.7511v-0.98659Z"/><path class="cls-1" d="M192.9463,144.43046c2.34629,26.76632,17.87107,51.27661,42.29068,63.158a77.4366,77.4366,0,0,0,71.863-1.99957c21.752-12.30013,35.78674-34.83648,38.3332-59.53a76.41441,76.41441,0,0,0-27.2928-65.81762C296.371,62.57432,266.243,57.418,240.17639,68.37424c-3.93064,1.65211-6.75324,5.22447-5.51814,9.71876,1.01838,3.7057,5.76,7.18208,9.71876,5.51814,19.04171-8.00352,39.62017-6.80217,57.005,3.93873a60.73229,60.73229,0,1,1-92.63442,56.88059c-0.37261-4.25074-3.36447-7.90067-7.90067-7.90067-3.98505,0-8.27543,3.62542-7.90067,7.90067h0Z"/><path class="cls-1" d="M292.65308,108.11181c-3.29057-2.71123-7.95193-3.22131-11.17324,0-2.79472,2.79472-3.30926,8.44658,0,11.17307,6.32156,5.20882,9.56962,13.07657,8.17843,20.22249a21.06676,21.06676,0,0,1-11.80111,15.27977c-12.24655,5.47663-27.27308-2.64213-28.98438-15.93027q5.1969-.05555,10.39363-0.11145c10.16165-.109,10.18788-15.91072,0-15.80134l-17.9315.19237c-3.13352.03361-7.09706,2.40621-7.61845,5.80034-1.74627,11.36441.83567,22.12187,8.29073,30.96417,6.116,7.25394,15.20279,11.42682,24.53819,12.31153,19.96959,1.89184,37.21029-13.9455,39.05413-33.40638A36.22043,36.22043,0,0,0,292.65308,108.11181Z"/><path class="cls-1" d="M403.165,140.866A135.16437,135.16437,0,0,0,340.77342,25.94931C305.6556,3.69375,260.64133-.91514,221.82215,14.07091a135.12592,135.12592,0,0,0-81.08086,88.206c-11.92078,41.37931-2.49207,86.58959,24.11107,120.26878,26.0187,32.9393,67.92322,52.0216,109.84206,50.22081A148.78511,148.78511,0,0,0,291.13,271.03917c4.22-.65519,6.5557-5.94326,5.51814-9.71876-1.23762-4.50348-5.48622-6.17528-9.71876-5.51814-36.58441,5.68006-74.95494-7.13539-101.25935-33.54957a118.36307,118.36307,0,0,1-32.66344-102.9644A119.08456,119.08456,0,0,1,214.50552,34.6061C247.421,17.247,287.585,16.67562,320.57388,32.76633a119.23466,119.23466,0,0,1,65.616,89.31556,117.17045,117.17045,0,0,1,1.17382,18.78414c-0.09015,10.17049,15.71111,10.17955,15.80134,0h0Z"/><path class="cls-1" d="M348.5243,187.23853S336.92,192.70564,333.73924,178.603C333.73924,178.603,345.91162,175.24456,348.5243,187.23853Z"/><path class="cls-1" d="M312.1057,184.72663s-9.37159,4.4152-11.94031-6.974C300.16539,177.75261,309.99572,175.04038,312.1057,184.72663Z"/><path class="cls-1" d="M333.80534,103.36778s-3.697-11.12951,9.45092-12.47868C343.25626,90.8891,344.97722,102.30426,333.80534,103.36778Z"/><path class="cls-1" d="M361.74469,43.71511s-1.19291-8.74107,8.71557-7.91856C370.46025,35.79655,370.15253,44.47528,361.74469,43.71511Z"/><path class="cls-1" d="M226.6166,250.8883s-3.64913-12.79658,11.32124-13.68592C237.93783,237.20238,239.333,250.22658,226.6166,250.8883Z"/><path class="cls-1" d="M216.22469,173.67132s2.90636-8.83678,11.91891-3.48079C228.1436,170.19053,223.84355,178.27514,216.22469,173.67132Z"/><path class="cls-1" d="M299.5492,97.14624s-1.49939-7.071,6.64649-6.99359C306.19569,90.15265,306.46513,97.26277,299.5492,97.14624Z"/><path class="cls-1" d="M281.0663,58.46063s7.071-1.49939,6.99359,6.64649C288.0599,65.10712,280.94977,65.37655,281.0663,58.46063Z"/><path class="cls-1" d="M378.74734,142.34476s2.293-6.85486,9.27483-2.65775C388.02217,139.687,384.64919,145.952,378.74734,142.34476Z"/><path class="cls-1" d="M399.19979,109.73783s4.978-5.24088,9.52826,1.51606C408.728,111.25389,403.02114,115.50332,399.19979,109.73783Z"/><path class="cls-1" d="M313.27152,123.32075s-3.20651,6.47807-9.55065,1.368C303.72087,124.6887,307.91679,118.94233,313.27152,123.32075Z"/><path class="cls-1" d="M297.02272,56.36026s2.083,10.772-10.27741,10.43274C286.74531,66.793,286.53,55.99507,297.02272,56.36026Z"/><path class="cls-1" d="M185.238,143.44734s4.978-5.24088,9.52826,1.51606C194.76625,144.96341,189.05934,149.21284,185.238,143.44734Z"/><path class="cls-1" d="M246.25242,278.12457s-6.87271-1.15-3.92885-8.43061C242.32357,269.694,248.79738,271.96118,246.25242,278.12457Z"/><path class="cls-1" d="M235.374,275.452s-0.09229-6.96765,7.59622-5.36736C242.97023,270.08468,241.89209,276.85876,235.374,275.452Z"/><path class="cls-1" d="M173.56419,248.1694s2.1383-12.106,14.9353-6.79655C188.4995,241.37285,184.39661,252.7573,173.56419,248.1694Z"/><path class="cls-1" d="M138.299,138.70325s-13.81065,2.65571-13.35932-13.18772C124.93964,125.51554,138.781,125.25392,138.299,138.70325Z"/><path class="cls-1" d="M343.38185,45.131s-0.34166,8.5104-9.62154,6.05587C333.76031,51.18684,335.51791,42.989,343.38185,45.131Z"/><path class="cls-1" d="M167.414,199.68969s3.13623-12.39783,16.01058-5.91916C183.4246,193.77053,178.30482,205.27083,167.414,199.68969Z"/><path class="cls-1" d="M208.14636,205.30795s3.13623-12.39783,16.01058-5.91916C224.15694,199.38878,219.03715,210.88908,208.14636,205.30795Z"/><path class="cls-1" d="M164.45658,194.14077s-1.59259-7.59012,7.14721-7.48846C171.60379,186.65231,171.87663,194.2816,164.45658,194.14077Z"/><path class="cls-1" d="M287.59,256.40974s-1.59259-7.59012,7.14721-7.48846C294.73716,248.92127,295.01,256.55057,287.59,256.40974Z"/><path class="cls-1" d="M188.98181,49.01867s6.78014-3.76508,9.26655,4.61419C198.24836,53.63286,191.04067,56.14875,188.98181,49.01867Z"/><path class="cls-1" d="M193.04132,52.79417s5.96,4.96234-.95539,10.30761C192.08593,63.10178,187.13635,57.28953,193.04132,52.79417Z"/><path class="cls-1" d="M224.644,4.33674s5.96,4.96234-.95539,10.30761C223.6886,14.64435,218.739,8.8321,224.644,4.33674Z"/><path class="cls-1" d="M151.81551,152.70615s-1.59259-7.59012,7.14721-7.48846C158.96272,145.21769,159.23556,152.847,151.81551,152.70615Z"/><path class="cls-1" d="M160.36544,62.77724s-7.51576,1.913-7.7848-6.82323C152.58064,55.954,160.1915,55.35789,160.36544,62.77724Z"/><path class="cls-1" d="M254.80412,65.15759s-7.2753,2.68631-8.45387-5.97425C246.35025,59.18334,253.85745,57.79683,254.80412,65.15759Z"/><path class="cls-1" d="M276.22371,26.88324s-7.2753,2.68631-8.45387-5.97425C267.76984,20.909,275.277,19.52248,276.22371,26.88324Z"/><path class="cls-1" d="M291.56546,7.7819S283.86418,8.69651,284.73892,0C284.73892,0,292.36242.40343,291.56546,7.7819Z"/><path class="cls-1" d="M304.5122,12.55373S303.01971,4.9433,311.75741,5.16C311.75741,5.16,311.92975,12.79227,304.5122,12.55373Z"/><path class="cls-1" d="M344.54225,153.36119s-1.49249-7.61043,7.24521-7.39369C351.78746,145.96751,351.9598,153.59973,344.54225,153.36119Z"/><path class="cls-1" d="M294.08861,218.07542s-4.50182-6.315,3.54569-9.72562C297.6343,208.3498,300.94277,215.22981,294.08861,218.07542Z"/><path class="cls-1" d="M273.19893,158.99648s-5.45851-5.50916,1.936-10.16914C275.13494,148.82734,279.50645,155.086,273.19893,158.99648Z"/><path class="cls-1" d="M237.70671,125.87685s-5.45851-5.50916,1.936-10.16914C239.64272,115.70771,244.01423,121.96634,237.70671,125.87685Z"/><path class="cls-1" d="M236.95466,124.91244s-7.32436,2.54949-8.34042-6.13164C228.61424,118.7808,236.14611,117.53523,236.95466,124.91244Z"/><path class="cls-1" d="M170.27563,103.81761s-3.422,13.06885-16.96481,6.1119C153.31082,109.9295,158.82024,97.8262,170.27563,103.81761Z"/><path class="cls-1" d="M217.7952,17.673s-12.53193-.2835-9.15913-14.00216C208.63607,3.67087,220.74451,6.046,217.7952,17.673Z"/></svg>