<svg id="Layer_1" data-name="Layer 1" xmlns="http://www.w3.org/2000/svg" viewBox="0 0 283.79923 278.12457"><defs><style>.cls-1{fill:#fff;}</style></defs><title>Plant Tracer Assets</title><path class="cls-1" d="M68.01749,144.43046c2.34629,26.76632,17.87107,51.27661,42.29068,63.158a77.4366,77.4366,0,0,0,71.863-1.99957c21.752-12.30013,35.78674-34.83648,38.3332-59.53a76.41441,76.41441,0,0,0-27.2928-65.81762c-21.76933-17.667-51.89735-22.82326-77.964-11.86707-3.93064,1.65211-6.75324,5.22447-5.51814,9.71876,1.01838,3.7057,5.76,7.18208,9.71876,5.51814,19.04171-8.00352,39.62017-6.80217,57.005,3.93873a60.73229,60.73229,0,1,1-92.63442,56.88059c-0.37261-4.25074-3.36447-7.90067-7.90067-7.90067-3.98505,0-8.27543,3.62542-7.90067,7.90067h0Z"/><path class="cls-1" d="M167.72427,108.11181c-3.29057-2.71123-7.95193-3.22131-11.17324,0-2.79472,2.79472-3.30926,8.44658,0,11.17307,6.32156,5.20882,9.56962,13.07657,8.17843,20.22249a21.06676,21.06676,0,0,1-11.80111,15.27977c-12.24655,5.47663-27.27308-2.64213-28.98438-15.93027q5.1969-.05555,10.39363-0.11145c10.16165-.109,10.18788-15.91072,0-15.80134l-17.9315.19237c-3.13352.03361-7.09706,2.40621-7.61845,5.80034-1.74627,11.36441.83567,22.12187,8.29073,30.96417,6.116,7.25394,15.20278,11.42682,24.53819,12.31153,19.96959,1.89184,37.21029-13.9455,39.05413-33.40638A36.22043,36.22043,0,0,0,167.72427,108.11181Z"/><path class="cls-1" d="M278.23619,140.866A135.16437,135.16437,0,0,0,215.84461,25.94931C180.72679,3.69375,135.71252-.91514,96.89334,14.07091a135.12592,135.12592,0,0,0-81.08086,88.206C3.8917,143.65621,13.32041,188.8665,39.92354,222.54568c26.0187,32.9393,67.92322,52.0216,109.84206,50.22081a148.7851,148.7851,0,0,0,16.43559-1.72732c4.22-.65519,6.5557-5.94326,5.51814-9.71876-1.23762-4.50348-5.48622-6.17528-9.71876-5.51814-36.58441,5.68006-74.95494-7.13539-101.25935-33.54957a118.36307,118.36307,0,0,1-32.66344-102.9644A119.08456,119.08456,0,0,1,89.57671,34.6061c32.91547-17.3591,73.07947-17.93048,106.06836-1.83977a119.23466,119.23466,0,0,1,65.616,89.31556,117.17045,117.17045,0,0,1,1.17382,18.78414c-0.09015,10.17049,15.7111,10.17955,15.80134,0h0Z"/><path class="cls-1" d="M223.59549,187.23853s-11.60434,5.46711-14.78506-8.63556C208.81043,178.603,220.98281,175.24456,223.59549,187.23853Z"/><path class="cls-1" d="M187.17689,184.72663s-9.37159,4.4152-11.94031-6.974C175.23658,177.75261,185.06691,175.04038,187.17689,184.72663Z"/><path class="cls-1" d="M208.87653,103.36778s-3.697-11.12951,9.45092-12.47868C218.32744,90.8891,220.04841,102.30426,208.87653,103.36778Z"/><path class="cls-1" d="M236.81587,43.71511s-1.19291-8.74107,8.71557-7.91856C245.53144,35.79655,245.22372,44.47528,236.81587,43.71511Z"/><path class="cls-1" d="M101.68778,250.8883s-3.64913-12.79658,11.32124-13.68592C113.009,237.20238,114.40419,250.22658,101.68778,250.8883Z"/><path class="cls-1" d="M91.29587,173.67132s2.90636-8.83678,11.91891-3.48079C103.21478,170.19053,98.91474,178.27514,91.29587,173.67132Z"/><path class="cls-1" d="M174.62039,97.14624s-1.49939-7.071,6.64649-6.99359C181.26688,90.15265,181.53632,97.26277,174.62039,97.14624Z"/><path class="cls-1" d="M156.13749,58.46063s7.071-1.49939,6.99359,6.64649C163.13109,65.10712,156.021,65.37655,156.13749,58.46063Z"/><path class="cls-1" d="M253.81852,142.34476s2.293-6.85486,9.27483-2.65775C263.09336,139.687,259.72037,145.952,253.81852,142.34476Z"/><path class="cls-1" d="M274.271,109.73783s4.978-5.24088,9.52826,1.51606C283.79923,111.25389,278.09233,115.50332,274.271,109.73783Z"/><path class="cls-1" d="M188.34271,123.32075s-3.20651,6.47807-9.55065,1.368C178.79206,124.6887,182.988,118.94233,188.34271,123.32075Z"/><path class="cls-1" d="M172.0939,56.36026s2.083,10.772-10.27741,10.43274C161.8165,66.793,161.60121,55.99507,172.0939,56.36026Z"/><path class="cls-1" d="M60.30918,143.44734s4.978-5.24088,9.52826,1.51606C69.83744,144.96341,64.13053,149.21284,60.30918,143.44734Z"/><path class="cls-1" d="M121.32361,278.12457s-6.87271-1.15-3.92885-8.43061C117.39476,269.694,123.86857,271.96118,121.32361,278.12457Z"/><path class="cls-1" d="M110.4452,275.452s-0.09229-6.96765,7.59622-5.36736C118.04141,270.08468,116.96328,276.85876,110.4452,275.452Z"/><path class="cls-1" d="M48.63538,248.1694s2.1383-12.106,14.9353-6.79655C63.57069,241.37285,59.46779,252.7573,48.63538,248.1694Z"/><path class="cls-1" d="M13.37015,138.70325S-0.4405,141.359.01083,125.51554C0.01083,125.51554,13.85219,125.25392,13.37015,138.70325Z"/><path class="cls-1" d="M218.453,45.131s-0.34166,8.5104-9.62154,6.05587C208.8315,51.18684,210.5891,42.989,218.453,45.131Z"/><path class="cls-1" d="M42.48521,199.68969s3.13623-12.39783,16.01058-5.91916C58.49579,193.77053,53.376,205.27083,42.48521,199.68969Z"/><path class="cls-1" d="M83.21755,205.30795s3.13623-12.39783,16.01058-5.91916C99.22812,199.38878,94.10834,210.88908,83.21755,205.30795Z"/><path class="cls-1" d="M39.52777,194.14077s-1.59259-7.59012,7.14721-7.48846C46.675,186.65231,46.94782,194.2816,39.52777,194.14077Z"/><path class="cls-1" d="M162.66114,256.40974s-1.59259-7.59012,7.14721-7.48846C169.80835,248.92127,170.08119,256.55057,162.66114,256.40974Z"/><path class="cls-1" d="M64.053,49.01867s6.78014-3.76508,9.26655,4.61419C73.31954,53.63286,66.11185,56.14875,64.053,49.01867Z"/><path class="cls-1" d="M68.11251,52.79417s5.96,4.96234-.95539,10.30761C67.15712,63.10178,62.20754,57.28953,68.11251,52.79417Z"/><path class="cls-1" d="M99.71518,4.33674s5.96,4.96234-.95539,10.30761C98.75979,14.64435,93.81021,8.8321,99.71518,4.33674Z"/><path class="cls-1" d="M26.8867,152.70615s-1.59259-7.59012,7.14721-7.48846C34.03391,145.21769,34.30675,152.847,26.8867,152.70615Z"/><path class="cls-1" d="M35.43663,62.77724s-7.51576,1.913-7.7848-6.82323C27.65183,55.954,35.26269,55.35789,35.43663,62.77724Z"/><path class="cls-1" d="M129.87531,65.15759s-7.2753,2.68631-8.45387-5.97425C121.42144,59.18334,128.92864,57.79683,129.87531,65.15759Z"/><path class="cls-1" d="M151.2949,26.88324s-7.2753,2.68631-8.45387-5.97425C142.841,20.909,150.34823,19.52248,151.2949,26.88324Z"/><path class="cls-1" d="M166.63665,7.7819S158.93537,8.69651,159.81011,0C159.81011,0,167.43361.40343,166.63665,7.7819Z"/><path class="cls-1" d="M179.58339,12.55373S178.0909,4.9433,186.8286,5.16C186.8286,5.16,187.00094,12.79227,179.58339,12.55373Z"/><path class="cls-1" d="M219.61344,153.36119s-1.49249-7.61043,7.24521-7.39369C226.85865,145.96751,227.031,153.59973,219.61344,153.36119Z"/><path class="cls-1" d="M169.1598,218.07542s-4.50182-6.315,3.54569-9.72562C172.70548,208.3498,176.014,215.22981,169.1598,218.07542Z"/><path class="cls-1" d="M148.27012,158.99648s-5.45851-5.50916,1.936-10.16914C150.20613,148.82734,154.57764,155.086,148.27012,158.99648Z"/><path class="cls-1" d="M112.7779,125.87685s-5.45851-5.50916,1.936-10.16914C114.71391,115.70771,119.08542,121.96634,112.7779,125.87685Z"/><path class="cls-1" d="M112.02585,124.91244s-7.32436,2.54949-8.34042-6.13164C103.68543,118.7808,111.2173,117.53523,112.02585,124.91244Z"/><path class="cls-1" d="M45.34682,103.81761s-3.422,13.06885-16.96481,6.1119C28.382,109.9295,33.89143,97.8262,45.34682,103.81761Z"/><path class="cls-1" d="M92.86639,17.673s-12.53193-.2835-9.15913-14.00216C83.70726,3.67087,95.8157,6.046,92.86639,17.673Z"/></svg>