<svg id="Layer_1" data-name="Layer 1" xmlns="http://www.w3.org/2000/svg" viewBox="0 0 61.66063 63.50006"><defs><style>.cls-1{fill:#fff;}.cls-2{opacity:0.05;}</style></defs><title>Top Nav</title><path class="cls-1" d="M1.22479,21.44749L15.552,35.77521a4.19336,4.19336,0,0,0,5.93056-5.93L10.12012,18.48272,21.48256,7.12028A4.15158,4.15158,0,0,0,22.27,2.321l-0.5-.78122a4.16251,4.16251,0,0,0-.287-0.34958A4.14669,4.14669,0,0,0,18.87311,0H18.16222a4.143,4.143,0,0,0-2.6097,1.19024L1.22479,15.51744a4.14775,4.14775,0,0,0-.75344,4.86338l0.4337,0.67776A4.17117,4.17117,0,0,0,1.22479,21.44749Zm2.00144-3.92809L17.55446,3.19167a1.36255,1.36255,0,0,1,1.92666,1.92717L6.11725,18.48272,19.48112,31.84712a1.37021,1.37021,0,0,1-.00052,1.92666,1.46036,1.46036,0,0,1-1.92666,0L3.22623,19.44605A1.37085,1.37085,0,0,1,3.22623,17.51939Z"/><path class="cls-2" d="M22.75145,32.87421a4.20164,4.20164,0,0,1-7.16919,2.97058L34.12914,63.50006,61.66063,63.5,22.31334,2.32556a4.15994,4.15994,0,0,1-.78894,4.80853L10.13988,18.51868,21.5244,29.9032A4.17147,4.17147,0,0,1,22.75145,32.87421Z"/></svg>