<svg id="Layer_1" data-name="Layer 1" xmlns="http://www.w3.org/2000/svg" viewBox="0 0 78.24426 67.66899"><defs><style>.cls-1{fill:#fff;}.cls-2{opacity:0.05;}</style></defs><title>Top Nav</title><path class="cls-1" d="M6.50812,36.27783c0.052,0.066.11255,0.12421,0.16528,0.18945L4.12189,32.48706A21.91259,21.91259,0,0,0,6.50812,36.27783Z"/><path class="cls-1" d="M7.92816,40.45483a1.71451,1.71451,0,0,0,1.34656.07037L8.55816,39.40735A1.89259,1.89259,0,0,0,7.92816,40.45483Z"/><path class="cls-2" d="M5.548,23.6724a1.13756,1.13756,0,0,1-1.10181,1.21777,19.7516,19.7516,0,0,0,.72644,3.46155,19.08959,19.08959,0,0,0,1.25305,3.07861A0.97977,0.97977,0,0,1,7.60876,30.4268a1.13965,1.13965,0,0,1-1.07471,1.21643c0.13843,0.2627.28491,0.52087,0.43518,0.77661,0.15686-.42786.79553-1.72375,2.56628-0.83264a1.881,1.881,0,0,1-2.45068,1.03369,19.12645,19.12645,0,0,0,2.81689,3.60925,19.35037,19.35037,0,0,0,6.61938,4.33032c-0.05078-.59656.07959-1.78516,1.90088-1.89343a2.01991,2.01991,0,0,1-1.25781,2.12756,19.02378,19.02378,0,0,0,9.24414.90454c0.03125-.00488.06238-0.00476,0.09375-0.00806a0.98853,0.98853,0,0,1,1.179-1.11365,1.22427,1.22427,0,0,1-.66077,1.13574,1.2053,1.2053,0,0,1,.97229.8855,1.297,1.297,0,0,1-.89966,1.58423,24.23391,24.23391,0,0,1-2.67908.28162,21.24009,21.24009,0,0,1-5.06677-.39734,0.94907,0.94907,0,0,1,.43042,1.27075,0.90494,0.90494,0,0,1-.7572-0.7854,0.9137,0.9137,0,0,1-1.01624.34973,0.88113,0.88113,0,0,1,1.02979-.90625,22.16527,22.16527,0,0,1-8.93457-4.16138,1.86949,1.86949,0,0,1-.82446.69055L26.67566,67.669h51.5686L42.85949,12.64372a22.12631,22.12631,0,0,1,1.92578,5.177,0.92135,0.92135,0,0,1,1.47778.31519,1.07563,1.07563,0,0,1-1.42212-.07861,21.83039,21.83039,0,0,1,.51514,4.90576,1.28868,1.28868,0,0,1-2.57581,0c0.00012-.01123-0.00024-0.02258-0.00012-0.03381a0.99582,0.99582,0,0,1-1.4043.27478,0.92234,0.92234,0,0,1,1.40308-.4906,18.58393,18.58393,0,0,0-.18994-2.8125A19.45444,19.45444,0,0,0,35.55,7.67094a1.07488,1.07488,0,0,1-1.50769.67322,1.33234,1.33234,0,0,1,1.04639-1.036,19.41935,19.41935,0,0,0-3.196-1.9668,18.98555,18.98555,0,0,0-7.949-1.88635,1.01549,1.01549,0,0,1,.71924.92737,0.99977,0.99977,0,0,1-1.37048-.93518A18.96123,18.96123,0,0,0,11.25622,7.89359a1.1122,1.1122,0,0,1,.6958.84924,1.54108,1.54108,0,0,1-.67822.0509,0.978,0.978,0,0,1-.32629,1.49268,1.14433,1.14433,0,0,1,.04358-1.58252,0.93679,0.93679,0,0,1-.33972-0.28333,19.46123,19.46123,0,0,0-5.55371,8.83264,1.78287,1.78287,0,0,1,2.29456-.32959,1.71884,1.71884,0,0,1-2.50476,1.11243c-0.11829.465-.226,0.93359-0.31042,1.40955a18.55722,18.55722,0,0,0-.17969,4.94312A0.99589,0.99589,0,0,1,5.548,23.6724Zm12.52271-3.871a1.09024,1.09024,0,0,1,.62915-0.93958,1.26232,1.26232,0,0,1,.11694,1.22681,1.16029,1.16029,0,0,1,.15894-0.01587q1.46155-.01575,2.9231-0.03125a1.28861,1.28861,0,0,1,0,2.57568l-1.69434.01831a3.41531,3.41531,0,0,0,3.70654,2.859,0.99429,0.99429,0,0,1,.57446-1.23376,1.34042,1.34042,0,0,1,.18823,1.06714c0.08545-.02979.17139-0.058,0.25562-0.0957a3.43409,3.43409,0,0,0,1.92383-2.49072A3.51994,3.51994,0,0,0,25.5199,19.445a1.29784,1.29784,0,0,1,0-1.82141,1.32469,1.32469,0,0,1,1.82129,0,5.94659,5.94659,0,0,1,1.82617,2.6748,1.03744,1.03744,0,0,1,1.53491-.19556,0.93039,0.93039,0,0,1-1.5166.252,5.62414,5.62414,0,0,1,.26611,2.27246A5.92446,5.92446,0,0,1,19.08532,26.066a6.14367,6.14367,0,0,1-1.35156-5.04761,1.016,1.016,0,0,1,.39478-0.623A0.98539,0.98539,0,0,1,16.902,19.36283,1.25366,1.25366,0,0,1,18.07068,19.80143Zm-6.97217,3.49792a1.34354,1.34354,0,0,1,1.2771-1.04321A1.32211,1.32211,0,0,1,13.66369,23.544a10.02344,10.02344,0,0,0,1.45142,4.35083,1.17821,1.17821,0,0,1,1.71021-.15161,1.5,1.5,0,0,1-1.27686.79395c0.16235,0.2207.332,0.43469,0.512,0.63806A9.92451,9.92451,0,0,0,29.567,30.52738c0.11768-.09.23047-0.18506,0.343-0.28A1.31886,1.31886,0,0,1,28.56579,28.976a1.54624,1.54624,0,0,1,1.84741.81873,9.89986,9.89986,0,0,0-.86914-14.978,1.01266,1.01266,0,0,1-1.07861,1.01941,0.91936,0.91936,0,0,1,.92944-1.13293c-0.20483-.15137-0.41382-0.29736-0.63086-0.4314a10.00448,10.00448,0,0,0-9.29248-.64209,1.29576,1.29576,0,0,1-1.58423-.89954,1.33126,1.33126,0,0,1,.89966-1.58423,11.85755,11.85755,0,0,1,1.59351-.53967,1.09375,1.09375,0,0,1-.58716-0.95862,1.14837,1.14837,0,0,1,1.3418.7887,12.36376,12.36376,0,0,1,4.83789.036,0.94651,0.94651,0,0,1-.52051-0.9425,0.91938,0.91938,0,0,1,1.0752.59778,1.43893,1.43893,0,0,1,1.52588-.94006,1.40435,1.40435,0,0,1-.86768,1.594A12.88206,12.88206,0,0,1,31.496,13.08036a11.92888,11.92888,0,0,1,2.51953,2.83838,1.54616,1.54616,0,0,1,1.57471-1.10266,1.76738,1.76738,0,0,1-1.08789,1.94006,12.36494,12.36494,0,0,1,1.44263,7.05334c-0.01831.17993-.04517,0.35815-0.071,0.5365a1.03341,1.03341,0,0,1,1.10693-.55139,1.13375,1.13375,0,0,1-1.18091,1.2052,1.075,1.075,0,0,1-.01367-0.13245,12.88668,12.88668,0,0,1-1.59009,4.21472,1.81139,1.81139,0,0,1,2.25269,1.44019,1.64268,1.64268,0,0,1-2.36548-1.25146,12.13554,12.13554,0,0,1-5.84546,4.94336,1.0554,1.0554,0,0,1-.6626,1.335,1.059,1.059,0,0,1-.08911-1.0603,12.67755,12.67755,0,0,1-9.50439-.64917,11.80847,11.80847,0,0,1-1.89893-1.16333,1.79771,1.79771,0,0,1-2.51733.7915A1.61346,1.61346,0,0,1,15.576,32.2747a12.82053,12.82053,0,0,1-4.46069-8.4978,0.97243,0.97243,0,0,1-1.28418-.39307A0.914,0.914,0,0,1,11.09851,23.29936Z"/><path class="cls-1" d="M16.25494,0.707a1.05256,1.05256,0,0,0-.46606.79535h0.849A1.14642,1.14642,0,0,0,16.25494.707Z"/><path class="cls-1" d="M27.16742,1.18475A1.13907,1.13907,0,0,0,26.05108,0a1.08966,1.08966,0,0,0,.35425,1.0744,21.83908,21.83908,0,0,0-8.01929.42792H28.62481C28.14093,1.38745,27.6579,1.267,27.16742,1.18475Z"/><path class="cls-1" d="M13.64532,0.59845a2.68094,2.68094,0,0,0-.08105.90387h1.42566A2.24961,2.24961,0,0,0,13.64532.59845Z"/><path class="cls-1" d="M40.02472,5.83533a1.21241,1.21241,0,0,0-1.23511.45972l0.47412,0.73975A1.42963,1.42963,0,0,0,40.02472,5.83533Z"/><path class="cls-1" d="M30.45538,0.84119a1.0025,1.0025,0,0,0-1.14819.66113h0.98413A1.55548,1.55548,0,0,0,30.45538.84119Z"/><path class="cls-1" d="M40.65875,9.21075l2.20068,3.43292A22.08848,22.08848,0,0,0,40.65875,9.21075Z"/><path class="cls-1" d="M10.09918,39.83466A22.166,22.166,0,0,0,19.03375,43.996a0.88118,0.88118,0,0,0-1.02979.90631,0.91379,0.91379,0,0,0,1.01624-.34973,0.90493,0.90493,0,0,0,.7572.78534A0.949,0.949,0,0,0,19.347,44.0672a21.23691,21.23691,0,0,0,5.06677.39728,24.24851,24.24851,0,0,0,2.67908-.28156,1.29708,1.29708,0,0,0,.89966-1.58429,1.2053,1.2053,0,0,0-.97229-0.8855,1.22423,1.22423,0,0,0,.66077-1.13574A0.98853,0.98853,0,0,0,26.502,41.691c-0.03137.0033-.0625,0.00317-0.09375,0.00806a19.02378,19.02378,0,0,1-9.24414-.90454,2.01985,2.01985,0,0,0,1.25781-2.1275c-1.82129.10822-1.95166,1.29688-1.90088,1.89337A19.34948,19.34948,0,0,1,9.90167,36.2301a19.12451,19.12451,0,0,1-2.81689-3.60925,1.881,1.881,0,0,0,2.45068-1.03369C7.76471,30.696,7.126,31.992,6.96918,32.41986c-0.15027-.2558-0.29675-0.51392-0.43518-0.77661A1.13972,1.13972,0,0,0,7.6087,30.42676,0.97982,0.97982,0,0,0,6.4256,31.4303a19.08893,19.08893,0,0,1-1.25305-3.07855,19.75226,19.75226,0,0,1-.72644-3.46161,1.13756,1.13756,0,0,0,1.10181-1.21777,0.99594,0.99594,0,0,0-1.15063.71631A18.55731,18.55731,0,0,1,4.577,19.44556c0.08447-.476.19214-0.94458,0.31042-1.40955a1.7188,1.7188,0,0,0,2.50476-1.11237,1.78294,1.78294,0,0,0-2.29456.32953A19.46155,19.46155,0,0,1,10.6513,8.42053a0.93557,0.93557,0,0,0,.33972.28333,1.1444,1.1444,0,0,0-.04358,1.58258,0.97806,0.97806,0,0,0,.32629-1.49274A1.54054,1.54054,0,0,0,11.952,8.74286a1.1122,1.1122,0,0,0-.6958-0.84924A18.96161,18.96161,0,0,1,23.29242,3.44714a0.99977,0.99977,0,0,0,1.37048.93518A1.0154,1.0154,0,0,0,23.94366,3.455a18.98463,18.98463,0,0,1,7.949,1.88635,19.42319,19.42319,0,0,1,3.196,1.96674,1.33241,1.33241,0,0,0-1.04639,1.036A1.07483,1.07483,0,0,0,35.55,7.671a19.45413,19.45413,0,0,1,7.03894,12.23,18.58393,18.58393,0,0,1,.18994,2.8125,0.92234,0.92234,0,0,0-1.40308.4906,0.99587,0.99587,0,0,0,1.4043-.27478c-0.00012.01123,0.00024,0.02252,0.00012,0.03375a1.28868,1.28868,0,0,0,2.57581,0,21.83039,21.83039,0,0,0-.51514-4.90576,1.07563,1.07563,0,0,0,1.42212.07861,0.92133,0.92133,0,0,0-1.47778-.31512,22.12677,22.12677,0,0,0-1.92578-5.17706L40.65875,9.21075a21.88463,21.88463,0,0,0-1.83691-2.07928,1.23982,1.23982,0,0,0,.44189-0.09668L38.78961,6.295a1.26845,1.26845,0,0,0-.19092.61768,21.22606,21.22606,0,0,0-8.60645-5.0564,0.98547,0.98547,0,0,0,.29907-0.354H29.30719A1.09963,1.09963,0,0,0,29.275,1.644c-0.21436-.05792-0.43433-0.09039-0.65015-0.14166H18.386c-0.66162.16113-1.3186,0.34552-1.96436,0.57129a0.9257,0.9257,0,0,0,.21619-0.57129h-0.849a1.3067,1.3067,0,0,0,.19836.72388c-0.06372.02386-.12878,0.043-0.19238,0.06757-0.20081.07758-.396,0.1662-0.59412,0.24945a1.60419,1.60419,0,0,0-.21082-1.04089H13.56427A1.43327,1.43327,0,0,0,14.6275,2.784a22.12532,22.12532,0,0,0-8.8634,7.30975,1.14363,1.14363,0,0,0-1.25647-.97247,0.98689,0.98689,0,0,0,1.14673,1.13245A21.69442,21.69442,0,0,0,2.5777,16.67249a21.23384,21.23384,0,0,0-.77917,4.58246,2.43116,2.43116,0,0,0-1.79675-.79425c-0.05322,1.86877,1.108,2.15717,1.75562,2.17462a22.19055,22.19055,0,0,0,2.3645,9.85175L6.6734,36.46729A21.02949,21.02949,0,0,0,9.25494,39.139a1.319,1.319,0,0,0-.69678.26831l0.71655,1.11786A1.86988,1.86988,0,0,0,10.09918,39.83466Z"/><path class="cls-1" d="M28.23785,34.21417a12.13555,12.13555,0,0,0,5.84546-4.9433,1.64282,1.64282,0,0,0,2.3656,1.25146,1.81154,1.81154,0,0,0-2.25281-1.44025,12.88616,12.88616,0,0,0,1.59009-4.21472,1.10776,1.10776,0,0,0,.01367.13251,1.13386,1.13386,0,0,0,1.181-1.20526,1.03343,1.03343,0,0,0-1.10706.55145c0.02588-.17841.05273-0.35663,0.07117-0.53656a12.36722,12.36722,0,0,0-1.44263-7.05341,1.76711,1.76711,0,0,0,1.08777-1.94,1.546,1.546,0,0,0-1.57458,1.1026,11.93027,11.93027,0,0,0-2.51965-2.83832,12.88081,12.88081,0,0,0-4.31006-2.29877,1.40433,1.40433,0,0,0,.86768-1.59412,1.4391,1.4391,0,0,0-1.52576.94012,0.91955,0.91955,0,0,0-1.07532-.59778,0.94663,0.94663,0,0,0,.52051.9425,12.36376,12.36376,0,0,0-4.83789-.036,1.14844,1.14844,0,0,0-1.3418-.7887,1.094,1.094,0,0,0,.58716.95856,11.88672,11.88672,0,0,0-1.59351.53973,1.33123,1.33123,0,0,0-.89966,1.58423,1.29576,1.29576,0,0,0,1.58423.89954,10.0049,10.0049,0,0,1,9.2926.64209c0.21692,0.134.4259,0.28009,0.63086,0.43146a0.91941,0.91941,0,0,0-.92957,1.13287A1.01269,1.01269,0,0,0,29.544,14.81671a9.9,9.9,0,0,1,.86926,14.978,1.54627,1.54627,0,0,0-1.84741-.81873A1.31886,1.31886,0,0,0,29.91,30.24744c-0.11255.09491-.22534,0.19-0.3429,0.28a9.92469,9.92469,0,0,1-13.50671-1.35223c-0.17981-.20337-0.34961-0.4173-0.512-0.638a1.50024,1.50024,0,0,0,1.27686-.79395,1.17827,1.17827,0,0,0-1.71021.15149,10.02267,10.02267,0,0,1-1.45142-4.35071,1.32217,1.32217,0,0,0-1.28809-1.288,1.34372,1.34372,0,0,0-1.2771,1.04321,0.91412,0.91412,0,0,0-1.26733.08447,0.97231,0.97231,0,0,0,1.2843.39307,12.82067,12.82067,0,0,0,4.46069,8.49786,1.61352,1.61352,0,0,0-2.01062,1.19318,1.79776,1.79776,0,0,0,2.51733-.7915,11.80817,11.80817,0,0,0,1.89893,1.16327,12.67781,12.67781,0,0,0,9.50452.64911,1.05884,1.05884,0,0,0,.089,1.06036A1.05528,1.05528,0,0,0,28.23785,34.21417Z"/><path class="cls-1" d="M18.1286,20.39526a1.01594,1.01594,0,0,0-.3949.62311A6.14373,6.14373,0,0,0,19.08526,26.066,5.92441,5.92441,0,0,0,29.45172,22.6272a5.62439,5.62439,0,0,0-.26611-2.27246,0.93036,0.93036,0,0,0,1.5166-.25183,1.03752,1.03752,0,0,0-1.53491.19543,5.94526,5.94526,0,0,0-1.82617-2.67468,1.32462,1.32462,0,0,0-1.82129,0,1.29777,1.29777,0,0,0,0,1.82135,3.51962,3.51962,0,0,1,1.33325,3.29651,3.4343,3.4343,0,0,1-1.92383,2.49078c-0.08423.03766-.17017,0.0658-0.25562,0.09564a1.34051,1.34051,0,0,0-.18811-1.06714,0.99439,0.99439,0,0,0-.57458,1.23376A3.41536,3.41536,0,0,1,20.2044,22.6355q0.84723-.00906,1.69434-0.01819a1.28868,1.28868,0,0,0,0-2.57581q-1.46155.01566-2.9231,0.03137a1.16167,1.16167,0,0,0-.15894.01575,1.26184,1.26184,0,0,0-.11694-1.22675,1.09024,1.09024,0,0,0-.62915.93958,1.25351,1.25351,0,0,0-1.16858-.43866A0.98521,0.98521,0,0,0,18.1286,20.39526Z"/></svg>