<svg id="Layer_1" data-name="Layer 1" xmlns="http://www.w3.org/2000/svg" xmlns:xlink="http://www.w3.org/1999/xlink" viewBox="0 0 640 228.27131"><defs><style>.cls-1{fill:none;}.cls-2{opacity:0.2;}.cls-3{clip-path:url(#clip-path);}.cls-4{fill:#fff;}</style><clipPath id="clip-path"><rect class="cls-1" x="205.86435" y="-205.86435" width="228.27131" height="640" transform="translate(434.13565 -205.86435) rotate(90)"/></clipPath></defs><title>Plant Tracer Assets</title><g class="cls-2"><g class="cls-3"><path class="cls-4" d="M634.73737,65.7607s-19.85248-7.20009-7.08189-27.28363C627.65548,38.47707,645.70575,48.78807,634.73737,65.7607Z"/><path class="cls-4" d="M651.68775,8.93682S633.95412,20.4033,625.66981-1.90828C625.66981-1.90828,644.793-10.05891,651.68775,8.93682Z"/><path class="cls-4" d="M594.77348,233.14378s-5.08942-17.84733,15.78968-19.08768C610.56316,214.0561,612.509,232.22088,594.77348,233.14378Z"/><path class="cls-4" d="M639.10154,213.7992s-18.3978-4.64135-8.79769-23.74939C630.30385,190.04982,647.37188,197.63506,639.10154,213.7992Z"/><path class="cls-4" d="M594.57565,201.58219s-6.02754-14.72053,11.64051-17.75673C606.21616,183.82547,609.596,199.11446,594.57565,201.58219Z"/><path class="cls-4" d="M627.1907,175.485s-7.87391-6.97889,1.72759-13.93737C628.91829,161.5476,635.38644,169.63664,627.1907,175.485Z"/><path class="cls-4" d="M632.01481,179.56536s-3.98693-9.73693,7.69964-11.74523C639.71446,167.82013,641.95,177.93307,632.01481,179.56536Z"/><path class="cls-4" d="M581.63513,139.13716s-3.98693-9.73693,7.69964-11.74523C589.33478,127.39193,591.57036,137.50487,581.63513,139.13716Z"/><path class="cls-4" d="M583.0723,145.96s3.28725-9.99487,13.48092-3.937C596.55323,142.023,591.68964,151.16715,583.0723,145.96Z"/><path class="cls-4" d="M565.21559,65.88871s5.63036-5.92772,10.777,1.71475C575.99256,67.60346,569.53774,72.40979,565.21559,65.88871Z"/><path class="cls-4" d="M548.02469,111.775s5.63036-5.92772,10.777,1.71475C558.80166,113.4898,552.34684,118.29613,548.02469,111.775Z"/><path class="cls-4" d="M489.93384,186.28909s10.022-15.85658,25.01989-.9573C514.95374,185.3318,502.57517,199.03316,489.93384,186.28909Z"/><path class="cls-4" d="M487.03278,172.19444s2.93553-14.57782,18.25738-7.78752C505.29016,164.40693,499.99972,178.05546,487.03278,172.19444Z"/><path class="cls-4" d="M515.56485,148.39569s13.44159-13.08413,24.554,4.90036C540.11883,153.296,524.88784,163.73506,515.56485,148.39569Z"/><path class="cls-4" d="M534.28857,238.24483s0.35056-15.9029,17.76166-11.633C552.05023,226.61185,549.04515,241.97889,534.28857,238.24483Z"/><path class="cls-4" d="M475.9062,102.81361s0.35056-15.9029,17.76166-11.633C493.66786,91.18063,490.66277,106.54767,475.9062,102.81361Z"/><path class="cls-4" d="M495.60365,87.663s-15.62058,3.00375-15.11011-14.916C480.49354,72.747,496.14886,72.451,495.60365,87.663Z"/><path class="cls-4" d="M496.5141,72.24036s-10.97041,2.10955-10.6119-10.47558C485.90221,61.76478,496.897,61.557,496.5141,72.24036Z"/><path class="cls-4" d="M496.91126,118.708s-10.97041,2.10955-10.6119-10.47558C486.29936,108.23238,497.29417,108.02457,496.91126,118.708Z"/><path class="cls-4" d="M273.26151,135.97107s-11.63825-10.84326,3.13434-20.99949C276.39584,114.97158,285.8678,127.43989,273.26151,135.97107Z"/><path class="cls-4" d="M274.0723,101.81816S258.7042,105.92262,257.942,88.0118C257.942,88.0118,273.53685,86.60589,274.0723,101.81816Z"/><path class="cls-4" d="M251.6508,70.24428s-5.72478,9.59307-14.881.95147C236.76977,71.19575,243.93042,62.84985,251.6508,70.24428Z"/><path class="cls-4" d="M299.10311,130.86668s-5.72478,9.59307-14.881.95147C284.22208,131.81815,291.38273,123.47226,299.10311,130.86668Z"/><path class="cls-4" d="M509.33,211.34235s-5.60457-14.8867,12.143-17.417C521.473,193.92539,524.41473,209.3047,509.33,211.34235Z"/><path class="cls-4" d="M527.86484,175.38815s3.54724-14.02261,18.10882-6.69489C545.97366,168.69326,540.1829,181.70072,527.86484,175.38815Z"/><path class="cls-4" d="M573.93528,181.7427s3.54724-14.02261,18.10882-6.69489C592.0441,175.04781,586.25335,188.05526,573.93528,181.7427Z"/><path class="cls-4" d="M524.51981,169.112s-1.8013-8.58483,8.08387-8.46985C532.60368,160.64217,532.91228,169.27131,524.51981,169.112Z"/><path class="cls-4" d="M552.25915,4.97117s7.6687-4.25851,10.481,5.21889C562.74011,10.19007,554.58783,13.03568,552.25915,4.97117Z"/><path class="cls-4" d="M556.85068,9.24147s6.74106,5.61267-1.0806,11.65846C555.77008,20.89992,550.17184,14.326,556.85068,9.24147Z"/><path class="cls-4" d="M510.22208,122.24726s-1.8013-8.58483,8.08387-8.46985C518.306,113.77741,518.61456,122.40654,510.22208,122.24726Z"/><path class="cls-4" d="M496.77039,44.00318s2.43053-8.42831,11.1099-3.69561C507.88029,40.30756,504.11025,48.0757,496.77039,44.00318Z"/><path class="cls-4" d="M488.43005,142.89577s2.43053-8.42831,11.1099-3.69561C499.53995,139.20016,495.76991,146.9683,488.43005,142.89577Z"/><path class="cls-4" d="M408.03278,149.69444s2.93553-14.57782,18.25738-7.78752C426.29016,141.90693,420.99972,155.55546,408.03278,149.69444Z"/><path class="cls-4" d="M436.56485,125.89569s13.44159-13.08413,24.554,4.90036C461.11883,130.796,445.88784,141.23506,436.56485,125.89569Z"/><path class="cls-4" d="M417.91126,96.208s-10.97041,2.10955-10.6119-10.47558C407.29936,85.73238,418.29417,85.52457,417.91126,96.208Z"/><path class="cls-4" d="M448.86484,152.88815s3.54724-14.02261,18.10882-6.69489C466.97366,146.19326,461.1829,159.20072,448.86484,152.88815Z"/><path class="cls-4" d="M445.51981,146.612s-1.8013-8.58483,8.08387-8.46985C453.60368,138.14217,453.91228,146.77131,445.51981,146.612Z"/><path class="cls-4" d="M431.22208,99.74726s-1.8013-8.58483,8.08387-8.46985C439.306,91.27741,439.61456,99.90654,431.22208,99.74726Z"/><path class="cls-4" d="M409.43005,120.39577s2.43053-8.42831,11.1099-3.69561C420.53995,116.70016,416.76991,124.4683,409.43005,120.39577Z"/><path class="cls-4" d="M519.89251,20.53285s-8.50072,2.16372-8.805-7.71744C511.08748,12.81541,519.69577,12.14117,519.89251,20.53285Z"/><path class="cls-4" d="M604.864,92.728s-8.22875,3.03836-9.56178-6.7572C595.30218,85.97078,603.79323,84.40257,604.864,92.728Z"/><path class="cls-4" d="M626.7077,23.22515s-8.22875,3.03836-9.56178-6.7572C617.14592,16.468,625.637,14.89974,626.7077,23.22515Z"/><path class="cls-4" d="M609.59332,69.864s-13.16385.89922-10.938-13.80356C598.65535,56.06047,611.575,57.39425,609.59332,69.864Z"/><path class="cls-4" d="M604.4344,25.43482s-8.22875,3.03836-9.56178-6.7572C594.87262,18.67763,603.36367,17.10941,604.4344,25.43482Z"/><path class="cls-4" d="M604.74593,139.3251s-1.8013-8.58483,8.08387-8.46985C612.8298,130.85525,613.1384,139.48438,604.74593,139.3251Z"/><path class="cls-4" d="M632.3408,89.99013s-6.17387-6.23115,2.18973-11.50185C634.53053,78.48829,639.47494,85.56713,632.3408,89.99013Z"/><path class="cls-4" d="M631.49019,88.89933s-8.28425,2.88361-9.43346-6.93522C622.05673,81.96412,630.57568,80.55532,631.49019,88.89933Z"/><path class="cls-4" d="M584.11166,18.60138s-21.11241-.47762-15.4303-23.5893C568.68136-4.98792,589.08033-.98657,584.11166,18.60138Z"/><path class="cls-4" d="M543.25359,49.11979s-18.23092-10.65812-2.05178-28.113C541.2018,21.00682,557.09966,34.40036,543.25359,49.11979Z"/><path class="cls-4" d="M552.33623,206.11134s-14.61868-17.81029,8.54715-29.544C560.88337,176.56735,572.07879,196.29314,552.33623,206.11134Z"/><path class="cls-4" d="M371.49345,226.56825s7.99767-1.69589,7.91013,7.51754C379.40358,234.08578,371.36165,234.39053,371.49345,226.56825Z"/><path class="cls-4" d="M493.45874,228.78824s5.63036-5.92772,10.777,1.71475C504.23571,230.503,497.78089,235.30932,493.45874,228.78824Z"/><path class="cls-4" d="M320.29741,190.30643s5.63036-5.92772,10.777,1.71475C331.07438,192.02118,324.61956,196.82751,320.29741,190.30643Z"/><path class="cls-4" d="M389.541,224.19262s2.356,12.18374-11.6243,11.8C377.91671,235.9926,377.67321,223.77957,389.541,224.19262Z"/><path class="cls-4" d="M445.20053,170.31183s3.00375,15.62058-14.916,15.11011C430.28452,185.42194,429.98861,169.76662,445.20053,170.31183Z"/><path class="cls-4" d="M427.90467,203.41958s-0.38644,9.62572-10.88248,6.84951C417.02219,210.26909,419.01013,200.99691,427.90467,203.41958Z"/><path class="cls-4" d="M428.727,202.24136s11.407,7.52516.34157,18.23745C429.06855,220.47882,419.26481,211.2678,428.727,202.24136Z"/><path class="cls-4" d="M267.341,215.88889s7.6687-4.25851,10.481,5.21889C277.82193,221.10778,269.66965,223.95339,267.341,215.88889Z"/><path class="cls-4" d="M271.9325,220.15918s6.74106,5.61267-1.0806,11.65846C270.85189,231.81764,265.25366,225.24368,271.9325,220.15918Z"/><path class="cls-4" d="M307.67681,165.35124s6.74106,5.61267-1.0806,11.65846C306.59621,177.00969,300.998,170.43573,307.67681,165.35124Z"/><path class="cls-4" d="M234.97433,231.45057s-8.50072,2.16372-8.805-7.71744C226.1693,223.73313,234.77759,223.05889,234.97433,231.45057Z"/><path class="cls-4" d="M231.551,210.60975s-3.93025-7.842,5.65764-10.25078C237.20861,200.359,239.70677,208.62435,231.551,210.60975Z"/><path class="cls-4" d="M338.63388,232.42174s-8.32377-2.76747-3.24589-11.24951C335.388,221.17222,342.99826,225.25158,338.63388,232.42174Z"/><path class="cls-4" d="M274.67514,194.28175s-13.16385.89922-10.938-13.80356C263.73717,180.47819,276.65678,181.812,274.67514,194.28175Z"/><path class="cls-4" d="M366.01622,190.85254s-8.22875,3.03836-9.56178-6.7572C356.45444,184.09534,364.94549,182.52712,366.01622,190.85254Z"/><path class="cls-4" d="M383.36856,169.2479s-8.71056,1.03447-7.72118-8.80174C375.64738,160.44616,384.27,160.90246,383.36856,169.2479Z"/><path class="cls-4" d="M299.19348,229.51909s-21.11241-.47762-15.4303-23.5893C283.76318,205.92979,304.16215,209.93114,299.19348,229.51909Z"/><path class="cls-4" d="M305.15087,180.27138s-21.11241-.47762-15.4303-23.5893C289.72057,156.68208,310.11954,160.68343,305.15087,180.27138Z"/><path class="cls-4" d="M398.2602,221.3777s-12.0975-19.22252,12.00631-27.83742C410.26651,193.54028,418.77971,214.21342,398.2602,221.3777Z"/><path class="cls-4" d="M454.24851,43.5456s-1.68809-8.6078,8.19472-8.36265C462.44323,35.18294,462.63816,43.81539,454.24851,43.5456Z"/><path class="cls-4" d="M553.42226,78.80885s-13.12513,6.18359-16.72269-9.76728C536.69957,69.04156,550.46719,65.243,553.42226,78.80885Z"/><path class="cls-4" d="M438.23088,4.96775s-10.59976,4.99383-13.50513-7.888C424.72575-2.92024,435.84439-5.98792,438.23088,4.96775Z"/><path class="cls-4" d="M325.98551,64.6474s-5.08942-17.84733,15.78968-19.08768C341.77519,45.55971,343.721,63.7245,325.98551,64.6474Z"/><path class="cls-4" d="M370.31357,45.30282s-18.3978-4.64135-8.79769-23.74939C361.51588,21.55343,378.58391,29.13868,370.31357,45.30282Z"/><path class="cls-4" d="M325.78768,33.08581s-6.02754-14.72053,11.64051-17.75673C337.42819,15.32908,340.808,30.61808,325.78768,33.08581Z"/><path class="cls-4" d="M358.40273,6.98859s-7.87391-6.97889,1.72759-13.93737C360.13032-6.94878,366.59847,1.14026,358.40273,6.98859Z"/><path class="cls-4" d="M363.22684,11.069s-3.98693-9.73693,7.69964-11.74523C370.92649-.67625,373.16207,9.43669,363.22684,11.069Z"/><path class="cls-4" d="M195.49212,191.09568s3.77509,9.821-7.95224,11.5757C187.53988,202.67138,185.52387,192.51239,195.49212,191.09568Z"/><path class="cls-4" d="M221.14587,17.79271s10.022-15.85658,25.01989-.9573C246.16577,16.83542,233.7872,30.53678,221.14587,17.79271Z"/><path class="cls-4" d="M218.24481,3.69806s2.93553-14.57782,18.25738-7.78752C236.50219-4.08945,231.21175,9.55907,218.24481,3.69806Z"/><path class="cls-4" d="M165.27688,41.3993s13.44159-13.08413,24.554,4.90036C189.83086,46.29966,174.59987,56.73868,165.27688,41.3993Z"/><path class="cls-4" d="M302.88783,93.095s-11.86194-10.59809,2.69555-21.06031C305.58338,72.03464,315.31339,84.30262,302.88783,93.095Z"/><path class="cls-4" d="M359.67,100.84274s-7.181-6.41591,1.63184-12.74955C361.30184,88.09319,367.19222,95.52,359.67,100.84274Z"/><path class="cls-4" d="M348.2473,95.60581s-7.77341-1.30069-4.44374-9.53547C343.80357,86.07033,351.12579,88.63468,348.2473,95.60581Z"/><path class="cls-4" d="M335.94324,92.583s-0.10438-7.88078,8.59173-6.07077C344.535,86.51226,343.31554,94.17411,335.94324,92.583Z"/><path class="cls-4" d="M395.87555,105.50975s-13.94427-1.99106-8.34783-16.84655C387.52773,88.6632,400.72,92.93134,395.87555,105.50975Z"/><path class="cls-4" d="M265.5006,69.74845s0.35056-15.9029,17.76166-11.633C283.26226,58.11547,280.25718,73.48251,265.5006,69.74845Z"/><path class="cls-4" d="M240.54207,42.846s-5.60457-14.8867,12.143-17.417C252.68507,25.429,255.62676,40.80831,240.54207,42.846Z"/><path class="cls-4" d="M259.07687,6.89177S262.6241-7.13084,277.18569.19688C277.18569,0.19688,271.39493,13.20434,259.07687,6.89177Z"/><path class="cls-4" d="M305.14731,13.24632s3.54724-14.02261,18.10882-6.69489C323.25613,6.55143,317.46538,19.55888,305.14731,13.24632Z"/><path class="cls-4" d="M255.73184,0.61564s-1.8013-8.58483,8.08387-8.46985C263.81571-7.85421,264.12431.77493,255.73184,0.61564Z"/><path class="cls-4" d="M395.00226,71.04517s-1.8013-8.58483,8.08387-8.46985C403.08614,62.57532,403.39474,71.20446,395.00226,71.04517Z"/><path class="cls-4" d="M180.64208,17.89939s2.43053-8.42831,11.1099-3.69561C191.752,14.20378,187.98194,21.97192,180.64208,17.89939Z"/><path class="cls-4" d="M402.35259,27.687s-5.0918-7.14266,4.01036-11.0002C406.363,16.68682,410.105,24.46848,402.35259,27.687Z"/><path class="cls-4" d="M283.54826,37.615S268.92957,19.80467,292.0954,8.071C292.0954,8.071,303.29082,27.79676,283.54826,37.615Z"/><path class="cls-4" d="M156.62967,233.49678s-1.68809-8.6078,8.19472-8.36265C164.82439,225.13413,165.01932,233.76658,156.62967,233.49678Z"/><path class="cls-4" d="M180.4621,102.16679s0.22189-21.11665,23.4007-15.71486C203.8628,86.45193,200.10879,106.89787,180.4621,102.16679Z"/><path class="cls-4" d="M87.9621,110.66679S88.184,89.55014,111.3628,94.95193C111.3628,94.95193,107.60879,115.39787,87.9621,110.66679Z"/><path class="cls-4" d="M318.4621,135.41679s0.22189-21.11665,23.4007-15.71486C341.8628,119.70193,338.10879,140.14787,318.4621,135.41679Z"/><path class="cls-4" d="M68.33056,87.2155s-19.85248-7.20009-7.08189-27.28363C61.24867,59.93188,79.29894,70.24287,68.33056,87.2155Z"/><path class="cls-4" d="M166.30342,182.76s-13.12513,6.18359-16.72269-9.76728C149.58073,172.99275,163.34835,169.19421,166.30342,182.76Z"/><path class="cls-4" d="M125.112,179.91893s-10.59976,4.99383-13.50513-7.888C111.60692,172.03094,122.72555,168.96327,125.112,179.91893Z"/><path class="cls-4" d="M146.57917,134.01052s-4.20458,10.93686-15.2106,3.6396C131.36858,137.65012,137.27983,127.746,146.57917,134.01052Z"/><path class="cls-4" d="M145.15319,133.25423s-7.46019,2.12545-7.97654-6.60155C137.17665,126.65269,144.76921,125.84119,145.15319,133.25423Z"/><path class="cls-4" d="M149.6555,87.89773S145.474,75.30966,160.345,73.78368C160.345,73.78368,162.29149,86.69483,149.6555,87.89773Z"/><path class="cls-4" d="M152.08749,89.43392s3.48974-12.79711,16.717-5.832C168.80454,83.60195,163.27493,95.43031,152.08749,89.43392Z"/><path class="cls-4" d="M206.19495,54.79714S198.159,44.244,211.7325,37.98027C211.7325,37.98027,217.75885,49.56344,206.19495,54.79714Z"/><path class="cls-4" d="M72.69473,235.254s-18.3978-4.64135-8.79769-23.74939C63.897,211.50462,80.96508,219.08987,72.69473,235.254Z"/><path class="cls-4" d="M28.16884,223.037s-6.02754-14.72053,11.64051-17.75673C39.80935,205.28027,43.18916,220.56927,28.16884,223.037Z"/><path class="cls-4" d="M60.7839,196.93978S52.91,189.96089,62.51148,183.0024C62.51148,183.0024,68.97963,191.09144,60.7839,196.93978Z"/><path class="cls-4" d="M65.608,201.02016s-3.98693-9.73693,7.69964-11.74523C73.30765,189.27493,75.54323,199.38788,65.608,201.02016Z"/><path class="cls-4" d="M15.22833,160.592S11.24139,150.855,22.928,148.84673C22.928,148.84673,25.16355,158.95967,15.22833,160.592Z"/><path class="cls-4" d="M432.72833,87.592S428.74139,77.855,440.428,75.84673C440.428,75.84673,442.66355,85.95967,432.72833,87.592Z"/><path class="cls-4" d="M16.66549,167.41479s3.28725-9.99487,13.48092-3.937C30.14642,163.47783,25.28283,172.622,16.66549,167.41479Z"/><path class="cls-4" d="M110.91,80.86083s-1.69589-7.99767,7.51754-7.91013C118.42751,72.9507,118.73226,80.99264,110.91,80.86083Z"/><path class="cls-4" d="M90.00483,37.10534s7.99767-1.69589,7.91013,7.51754C97.915,44.62287,89.873,44.92762,90.00483,37.10534Z"/><path class="cls-4" d="M202.06975,128.71553s2.59354-7.75322,10.49033-3.00606C212.56008,125.70948,208.74506,132.79546,202.06975,128.71553Z"/><path class="cls-4" d="M223.62011,95.10259s5.63036-5.92772,10.777,1.71475C234.39708,96.81734,227.94226,101.62367,223.62011,95.10259Z"/><path class="cls-4" d="M211.97011,45.32533s5.63036-5.92772,10.777,1.71475C222.74708,47.04007,216.29226,51.84641,211.97011,45.32533Z"/><path class="cls-4" d="M38.80878,0.84352s5.63036-5.92772,10.777,1.71475C49.58575,2.55826,43.13094,7.3646,38.80878.84352Z"/><path class="cls-4" d="M126.43065,110.4656s-3.62673,7.327-10.80229,1.54723C115.62836,112.01283,120.37416,105.51338,126.43065,110.4656Z"/><path class="cls-4" d="M137.61477,51.788s-5.505,11.12158-16.3966,2.34851C121.21817,54.13646,128.42174,44.27107,137.61477,51.788Z"/><path class="cls-4" d="M108.05238,34.72971s2.356,12.18374-11.6243,11.8C96.42809,46.52969,96.18459,34.31666,108.05238,34.72971Z"/><path class="cls-4" d="M241.761,145.6564s-15.62058,3.00375-15.11011-14.916C226.65088,130.74038,242.30619,130.44448,241.761,145.6564Z"/><path class="cls-4" d="M199.761,170.1564s-15.62058,3.00375-15.11011-14.916C184.65088,155.24038,200.30619,154.94448,199.761,170.1564Z"/><path class="cls-4" d="M227.96728,178.98066s-9.71784-6.53418-.15525-15.63C227.812,163.35064,236.14332,171.31733,227.96728,178.98066Z"/><path class="cls-4" d="M146.416,13.95667s-0.38644,9.62572-10.88248,6.84951C135.53357,20.80618,137.52151,11.534,146.416,13.95667Z"/><path class="cls-4" d="M147.23835,12.77845s11.407,7.52516.34157,18.23745C147.57992,31.0159,137.77619,21.80489,147.23835,12.77845Z"/><path class="cls-4" d="M7.52847,203.1975s3.54724-14.02261,18.10882-6.69489C25.63729,196.50261,19.84654,209.51007,7.52847,203.1975Z"/><path class="cls-4" d="M38.45715,114.18278s-8.22875,3.03836-9.56178-6.7572C28.89537,107.42559,37.38642,105.85737,38.45715,114.18278Z"/><path class="cls-4" d="M34.95715,76.68278s-8.22875,3.03836-9.56178-6.7572C25.39537,69.92559,33.88642,68.35737,34.95715,76.68278Z"/><path class="cls-4" d="M60.3009,44.68s-8.22875,3.03836-9.56178-6.7572C50.73911,37.92276,59.23016,36.35454,60.3009,44.68Z"/><path class="cls-4" d="M84.52759,4.38963S76.29885,7.428,74.96581-2.36757C74.96581-2.36757,83.45686-3.93579,84.52759,4.38963Z"/><path class="cls-4" d="M161.79952,144.44295s-1.68809-8.6078,8.19472-8.36265C169.99423,136.08029,170.18917,144.71274,161.79952,144.44295Z"/><path class="cls-4" d="M104.73375,217.6382s-5.0918-7.14266,4.01036-11.0002C108.74411,206.638,112.48617,214.41966,104.73375,217.6382Z"/><path class="cls-4" d="M38.33912,160.7799s-1.8013-8.58483,8.08387-8.46985C46.423,152.31,46.73159,160.93919,38.33912,160.7799Z"/><path class="cls-4" d="M78.38461,148.896s-6.64215-5.72938,1.28376-11.63784C79.66837,137.25815,85.1511,143.92874,78.38461,148.896Z"/><path class="cls-4" d="M78.41714,147.87909s7.725-4.1556,10.41025,5.35856C88.82739,153.23765,80.63779,155.974,78.41714,147.87909Z"/><path class="cls-4" d="M65.934,111.44494s-6.17387-6.23115,2.18973-11.50185C68.12372,99.94309,73.06813,107.02193,65.934,111.44494Z"/><path class="cls-4" d="M65.08338,110.35414s-8.28425,2.88361-9.43346-6.93522C55.64992,103.41892,64.16887,102.01012,65.08338,110.35414Z"/><path class="cls-4" d="M379.27769,136.33186s-8.63883,1.52139-8.20269-8.35483C371.075,127.977,379.7096,127.949,379.27769,136.33186Z"/><path class="cls-4" d="M377.89659,136.40907s-2.35231,8.45048-11.07517,3.79841C366.82142,140.20748,370.51931,132.40474,377.89659,136.40907Z"/><path class="cls-4" d="M17.70486,40.05618s-21.11241-.47762-15.4303-23.5893C2.27456,16.46688,22.67353,20.46823,17.70486,40.05618Z"/><path class="cls-4" d="M116.77157,31.91479s-12.0975-19.22252,12.00631-27.83742C128.77788,4.07737,137.29109,24.75051,116.77157,31.91479Z"/></g></g></svg>