<svg id="Layer_1" data-name="Layer 1" xmlns="http://www.w3.org/2000/svg" viewBox="0 0 44.4703 33.71336"><defs><style>.cls-1{fill:#d9e021;}</style></defs><title>Plant Tracer Assets</title><path class="cls-1" d="M43.07784,1.39256A4.7544,4.7544,0,0,0,36.35458,1.392L15.51135,22.23526,8.11571,14.83961a4.75434,4.75434,0,0,0-6.72366,6.72366l-0.00013.00013L12.15,32.32147l0.00013-.00013a4.753,4.753,0,0,0,4.71506,1.1961c0.02679-.00788.05253-0.01917,0.07906-0.02758,0.11977-.03782.23914-0.07709,0.35628-0.12463,0.04307-.0176.08444-0.04032,0.12725-0.059,0.09889-.04373.19817-0.08628,0.29443-0.13684,0.0436-.02285.085-0.05109,0.12791-0.07538,0.09324-.05279.18687-0.1044,0.27709-0.16389,0.04885-.03231.09482-0.07065,0.14275-0.10493,0.08129-.05818.16376-0.11412,0.2419-0.17781,0.05739-.04688.11071-0.10046,0.16639-0.15037,0.065-.05818.132-0.11333,0.19449-0.17558L43.07837,8.11582A4.75463,4.75463,0,0,0,43.07784,1.39256Z"/></svg>