<svg id="Layer_1" data-name="Layer 1" xmlns="http://www.w3.org/2000/svg" viewBox="0 0 533.65686 24.31474"><defs><style>.cls-1{fill:#fff;}</style></defs><title>Plant Tracer Assets</title><path class="cls-1" d="M15.21816,1.07169a7.45532,7.45532,0,0,1,2.7204,2.7204,7.32106,7.32106,0,0,1,1.0032,3.75749,7.31925,7.31925,0,0,1-1.0032,3.75749,7.45532,7.45532,0,0,1-2.7204,2.7204A7.31683,7.31683,0,0,1,11.46,15.03067H5.74728v9.08H0V0.06849H11.46A7.31683,7.31683,0,0,1,15.21816,1.07169ZM12.87137,5.79848a2.33866,2.33866,0,0,0-1.61549-.7991H5.611v5.1004h5.64489a2.28982,2.28982,0,0,0,1.61549-.833,2.59617,2.59617,0,0,0,.66349-1.7511A2.47466,2.47466,0,0,0,12.87137,5.79848Z"/><path class="cls-1" d="M54.30758,18.32946h9.45427v5.78119H48.1867V0.06849h6.12089v18.261Z"/><path class="cls-1" d="M105.86087,0.30649l7.85538,23.80415h-5.91679l-1.5643-4.86309H98.78729l-1.5297,4.86309H91.3062L99.19549,0.30649h6.66538Zm-5.47469,13.97627h4.28469l-2.14269-6.73319Z"/><path class="cls-1" d="M154.83006,0.06849h6.12158V24.11064h-6.12158L147.75717,11.222V24.11064h-6.15548V0.06849h6.15548l7.07289,12.888V0.06849Z"/><path class="cls-1" d="M208.66165,0.06849V6.18938h-6.15548V24.11064h-6.15479V6.18938h-6.15548V0.06849h18.46575Z"/><path class="cls-1" d="M293.09906,0.06849V6.18938h-6.15548V24.11064h-6.15479V6.18938h-6.15548V0.06849h18.46575Z"/><path class="cls-1" d="M341.62477,24.11064H335.47l-3.80869-9.08h-3.57069v9.08h-5.74728V0.06849h11.12027a7.4828,7.4828,0,0,1,6.47789,3.7402,7.35058,7.35058,0,0,1,1.0032,3.74089,7.25235,7.25235,0,0,1-.9181,3.588,7.77691,7.77691,0,0,1-2.4824,2.7031ZM335.50388,6.52909s-0.21586-.238-0.6462-0.714a2.30618,2.30618,0,0,0-1.5982-.7818V4.99938H327.9543v5.1004h5.30519a2.40868,2.40868,0,0,0,1.5982-.833,2.55581,2.55581,0,0,0,.6462-1.7511V6.52909Z"/><path class="cls-1" d="M383.04438,0.30649l7.85538,23.80415H384.983l-1.5643-4.86309H375.9708l-1.5297,4.86309h-5.95138L376.379,0.30649h6.66538Zm-5.47469,13.97627h4.28469l-2.14269-6.73319Z"/><path class="cls-1" d="M432.65838,17.93856a6.70819,6.70819,0,0,0,2.0403-1.34359l4.14909,4.14909a12.20409,12.20409,0,0,1-3.91109,2.6353,12.198,12.198,0,0,1-10.77988-.6967,12.1588,12.1588,0,0,1-4.421-4.421,11.83461,11.83461,0,0,1-1.6321-6.087,11.92564,11.92564,0,0,1,1.6321-6.10428,12.11465,12.11465,0,0,1,4.421-4.43759A12.19544,12.19544,0,0,1,434.93668.9354a12.22654,12.22654,0,0,1,3.91109,2.6353l-4.14909,4.14909a6.73377,6.73377,0,0,0-2.0403-1.34359,6.10772,6.10772,0,0,0-2.41459-.4926,6.01224,6.01224,0,0,0-3.12859.8496,6.41679,6.41679,0,0,0-2.2783,2.29559,6.09805,6.09805,0,0,0-.8503,3.14589,6.00634,6.00634,0,0,0,.8503,3.12859,6.4517,6.4517,0,0,0,2.2783,2.2783,6.00634,6.00634,0,0,0,3.12859.8503A6.09631,6.09631,0,0,0,432.65838,17.93856Z"/><path class="cls-1" d="M484.44967,18.90785v5.20279h-16.357V0.06849h16.05116V5.27128h-9.89568V9.48817h8.33138V14.691h-8.33138v4.21689h10.20148Z"/><path class="cls-1" d="M533.65686,24.11064h-6.15479l-3.80869-9.08h-3.57069v9.08H514.3754V0.06849h11.12027a7.4828,7.4828,0,0,1,6.47789,3.7402,7.35058,7.35058,0,0,1,1.0032,3.74089,7.25235,7.25235,0,0,1-.9181,3.588,7.77691,7.77691,0,0,1-2.4824,2.7031ZM527.536,6.52909s-0.21586-.238-0.6462-0.714a2.30618,2.30618,0,0,0-1.5982-.7818V4.99938h-5.30519v5.1004h5.30519a2.40868,2.40868,0,0,0,1.5982-.833,2.55581,2.55581,0,0,0,.6462-1.7511V6.52909Z"/></svg>