<svg id="Layer_1" data-name="Layer 1" xmlns="http://www.w3.org/2000/svg" viewBox="0 0 43.42608 43.42608"><defs><style>.cls-1{fill:#d9e021;}</style></defs><title>Plant Tracer Assets</title><path class="cls-1" d="M28.99321,4.328L34.491,9.82586a1.10412,1.10412,0,0,1,.00005,1.56142l-0.2503.2503a1.10412,1.10412,0,0,1-1.56142-.00005L27.18154,6.13969,26.00248,7.31876l2.2511,2.2511a1.104,1.104,0,0,1-.0001,1.56137l-0.25024.25024a1.104,1.104,0,0,1-1.56131.00005l-2.2511-2.2511L23.0117,10.30953l5.49783,5.49783a1.10407,1.10407,0,0,1,.00005,1.56142l-0.25024.25024a1.10418,1.10418,0,0,1-1.56147,0L21.2,12.1212,20.021,13.30026l2.2511,2.2511a1.104,1.104,0,0,1-.00005,1.56131l-0.25024.25024a1.104,1.104,0,0,1-1.56137.0001l-2.2511-2.2511L17.03025,16.291l5.49783,5.49783a1.10412,1.10412,0,0,1,.00005,1.56142l-0.25024.25024a1.10413,1.10413,0,0,1-1.56147,0l-5.49783-5.49783-1.17906,1.17906,2.2511,2.2511a1.104,1.104,0,0,1-.00005,1.56131l-0.2503.2503a1.104,1.104,0,0,1-1.56131.00005l-2.2511-2.2511L11.0488,22.27244l5.49783,5.49783a1.10418,1.10418,0,0,1,0,1.56147l-0.25024.25024a1.10412,1.10412,0,0,1-1.56142-.00005L9.23714,24.0841,8.058,25.26322l2.2511,2.2511a1.104,1.104,0,0,1-.00005,1.56131l-0.25024.25024a1.10405,1.10405,0,0,1-1.56137.0001l-2.2511-2.2511L5.06729,28.25394l5.49783,5.49783a1.10412,1.10412,0,0,1,.00005,1.56142l-0.2503.2503a1.10412,1.10412,0,0,1-1.56142-.00005L3.25563,30.06561,0,33.32124,10.10485,43.42608,43.42608,10.10485,33.32124,0Z"/></svg>