<svg id="Layer_1" data-name="Layer 1" xmlns="http://www.w3.org/2000/svg" viewBox="0 0 94.84073 62.66408"><defs><style>.cls-1{fill:#fff;}.cls-2{opacity:0.05;}</style></defs><title>Top Nav</title><path class="cls-1" d="M60.24344,7.97878l0.50635,0.79071A6.49614,6.49614,0,0,0,60.24344,7.97878Z"/><path class="cls-1" d="M55.17005,5.291H54.89658L49.09135,7.13784V7.02953A7.0376,7.0376,0,0,0,42.06185,0H7.02952A7.0376,7.0376,0,0,0,0,7.02953V28.2333a7.0376,7.0376,0,0,0,7.02952,7.0295H42.06185a7.03759,7.03759,0,0,0,7.0295-7.0295V28.12512l5.80523,1.84707h0.27347a6.696,6.696,0,0,0,6.8-6.57121V11.86166A6.69563,6.69563,0,0,0,55.17005,5.291ZM46.09516,28.2333a4.03792,4.03792,0,0,1-4.03331,4.03331H7.02952A4.03792,4.03792,0,0,1,2.99619,28.2333V7.02953A4.03793,4.03793,0,0,1,7.02952,2.99619H42.06185a4.03793,4.03793,0,0,1,4.03331,4.03335V28.2333Zm12.349-4.83232A3.14962,3.14962,0,0,1,55.417,26.43792l-6.32563-2.013V10.8379L55.417,8.82522a3.14991,3.14991,0,0,1,3.02713,3.03644V23.401Z"/><path class="cls-1" d="M11.96584,16.4034a5.22532,5.22532,0,1,1,5.22532-5.22532A5.23134,5.23134,0,0,1,11.96584,16.4034Zm0-8.14588a2.92056,2.92056,0,1,0,2.92056,2.92056A2.92387,2.92387,0,0,0,11.96584,8.25752Z"/><path class="cls-2" d="M94.84073,62.66408L61.19913,8.83437A6.3492,6.3492,0,0,1,61.97,11.86159V23.4009a6.696,6.696,0,0,1-6.79993,6.57129H54.89664L49.09146,28.125V28.2333a7.03756,7.03756,0,0,1-7.02954,7.02942H7.02945a7.00515,7.00515,0,0,1-5.20569-2.32251L20.85929,62.66408H94.84073Z"/></svg>