<svg id="Layer_1" data-name="Layer 1" xmlns="http://www.w3.org/2000/svg" viewBox="0 0 38.18192 38.93413"><defs><style>.cls-1{fill:#fff;fill-rule:evenodd;}</style></defs><title>Plant Tracer Assets</title><path class="cls-1" d="M6.80485,32.12933v-2.3844a1.7389,1.7389,0,0,0-1.72947-1.73458H1.73458A1.74328,1.74328,0,0,0,0,29.74493v7.45974a1.73889,1.73889,0,0,0,1.73458,1.72946H36.44676a1.739,1.739,0,0,0,1.73515-1.72946V29.74493a1.7434,1.7434,0,0,0-1.73515-1.73458H33.106a1.73837,1.73837,0,0,0-1.72885,1.73458v2.3844H6.80485Z"/><path class="cls-1" d="M23.43084,13.65432a0.42844,0.42844,0,0,1,.17306-0.353,0.45422,0.45422,0,0,1,.38628-0.08366l4.3596,0.97932a0.45209,0.45209,0,0,0,.48078-0.69968c-3.1282-4.43189-6.26724-8.85855-9.37882-13.307a0.4536,0.4536,0,0,0-.73869,0L9.33417,13.503a0.45237,0.45237,0,0,0,.48135.69968l4.36481-.97932a0.44293,0.44293,0,0,1,.3805.07793,0.45033,0.45033,0,0,1,.17936.353c0.02751,1.589.15644,3.11674,0.15644,4.67253v7.53771A1.81035,1.81035,0,0,0,16.704,27.67249h4.77338a1.81051,1.81051,0,0,0,1.808-1.80793V18.32685C23.28534,16.79914,23.37468,15.24335,23.43084,13.65432Z"/></svg>