<svg id="Layer_1" data-name="Layer 1" xmlns="http://www.w3.org/2000/svg" viewBox="0 0 80.48206 86.40758"><defs><style>.cls-1{fill:#d9e021;fill-rule:evenodd;}</style></defs><title>Plant Tracer Assets</title><path class="cls-1" d="M17.52562,0.67988c-3.14756-1.203-6.41386-.68511-9.45746.58311A16.84493,16.84493,0,0,0,4.87091,2.97506,12.468,12.468,0,0,0,2.51265,5.09595,10.28655,10.28655,0,0,0,.98221,7.54366c-2.23967,4.96713-.265,10.94854,2.08717,15.51878A23.0273,23.0273,0,0,0,4.42258,25.374a15.95589,15.95589,0,0,0,1.58279,1.99387,12.52509,12.52509,0,0,0,1.90206,1.67831,11.27362,11.27362,0,0,0,2.49428,1.34662c3.1689,1.212,6.43977.69012,9.502-.5846A17.13293,17.13293,0,0,0,23.12846,28.08a12.74885,12.74885,0,0,0,2.15118-1.87112c2.71966,4.548,6.163,9.76583,8.45636,14.52407C28.4393,51.27059,20.8133,70.96927,19.13764,82.87152c-0.58411,4.09382,1.55147,3.75248,2.87766,1.32322L39.33236,52.39961,54.73624,84.511c1.19725,2.49164,3.30588,2.94077,2.95033-1.18627-1.05014-11.83693-7.5468-31.55246-12.17751-42.25855l0.52768-.96558c2.10879-3.8919,5.82925-8.80936,8.38557-12.61809,4.49966,5.45815,13.22049,7.54232,18.9045,2.31793,3.365-3.08056,6.62686-9.66907,7.09264-14.103C81.21863,7.98432,74.241,1.81943,66.66706,1.896c-8.64191.09665-21.959,21.51887-26.737,28.424C38.18821,27.47237,23.81493,3.07369,17.52562.67988h0Zm52.87947,11.376c2.96283,2.11969.3008,6.42438-1.071,8.81979-1.50273,2.5994-2.67829,4.26963-6.11031,2.547-2.469-1.24768-3.03125-2.33286-2.13281-5.02158a21.64218,21.64218,0,0,1,3.76168-6.76421c1.71313-1.7209,3.80334-.83246,5.55247.419h0ZM18.0126,13.84844c1.38,3.31283,2.69539,6.20281-1.44033,7.91858-4.0896,1.69295-5.19085-1.112-6.62477-4.58336-0.733-1.77277-2.23616-5.21091-.33733-6.8314,1.04727-.89986,3.46514-1.90717,4.79521-1.49072C16.09923,9.392,17.39149,12.3659,18.0126,13.84844Z"/></svg>