<svg id="Layer_1" data-name="Layer 1" xmlns="http://www.w3.org/2000/svg" viewBox="0 0 44.36205 27.57234"><defs><style>.cls-1{fill:#d9e021;}</style></defs><title>Plant Tracer Assets</title><path class="cls-1" d="M44.2728,2.17336a2.99323,2.99323,0,0,0-2.083-2.083,2.59277,2.59277,0,0,0-2.55408.72938l-12.721,12.721c-1.826-1.82217-7.93829-7.93829-7.93829-7.93829L18.518,5.144,0.82177,22.84153a2.65407,2.65407,0,0,0,.038,3.871,2.86461,2.86461,0,0,0,1.99439.8598,2.619,2.619,0,0,0,1.87409-.81928c5.39561-5.40067,8.517-8.52078,13.78976-13.791l8.39668,8.39288L43.54216,4.73A2.59987,2.59987,0,0,0,44.2728,2.17336Z"/></svg>