<svg id="Layer_1" data-name="Layer 1" xmlns="http://www.w3.org/2000/svg" viewBox="0 0 32.0192 66.0832"><defs><style>.cls-1{opacity:0.05;}.cls-2{fill:#fff;}</style></defs><title>Top Nav</title><path class="cls-1" d="M8.27848,1.9687H3.23942S0.32462,6.53731.09244,5.40864L0.05289,38.20674l0.7168,1.95874L17.25455,66.0832h0.57178A14.22049,14.22049,0,0,0,32.00992,52.09273c0.00073-.06152.00928-0.12109,0.00928-0.18286V39.00239ZM4.49992,39.16646a1.5,1.5,0,1,1,1.5-1.5A1.50164,1.50164,0,0,1,4.49992,39.16646Zm0-16.5835a1.5,1.5,0,1,1,1.5-1.5A1.50164,1.50164,0,0,1,4.49992,22.583Zm0-16.583a1.5,1.5,0,1,1,1.5-1.5A1.50164,1.50164,0,0,1,4.49992,6Z"/><path class="cls-2" d="M4.49992,16.583a4.5,4.5,0,1,0,4.5,4.5A4.50492,4.50492,0,0,0,4.49992,16.583Zm0,5.99994a1.5,1.5,0,1,1,1.5-1.5A1.50164,1.50164,0,0,1,4.49992,22.583Z"/><path class="cls-2" d="M4.5,0A4.5,4.5,0,1,0,9,4.5,4.50492,4.50492,0,0,0,4.5,0Zm0,6A1.5,1.5,0,1,1,6,4.5,1.50164,1.50164,0,0,1,4.5,6Z"/><path class="cls-2" d="M4.5,33.1665a4.5,4.5,0,1,0,4.5,4.5A4.50492,4.50492,0,0,0,4.5,33.1665Zm0,6a1.5,1.5,0,1,1,1.5-1.5A1.50164,1.50164,0,0,1,4.5,39.1665Z"/></svg>