<svg id="Layer_1" data-name="Layer 1" xmlns="http://www.w3.org/2000/svg" viewBox="0 0 39.24657 38.8981"><defs><style>.cls-1{fill:#fff;}</style></defs><title>Plant Tracer Assets</title><path class="cls-1" d="M8.40335,0L0.27174,7.7763,0,8.03093V38.88735H1.911L2.61279,38.8981l28.23043-.01075,8.40335-8.02066V0H8.40335ZM27.96749,31.35786V35.496H6.21967l4.35758-4.13814H27.96749ZM5.49438,7.52948l2.39383-2.2433v2.2433H5.49438Zm2.39383,3.39135V29.30321L3.39184,33.51759V10.92083H7.88822Zm20.07928,0V27.96652H11.28005V10.92083H27.96749Zm5.13174-7.52948L28.685,7.52948H11.28005V3.39135H33.09923Zm2.7555,2.0654V27.96652H31.35835V9.67162ZM33.78542,31.35786l-2.42707,2.27458V31.35786h2.42707Z"/></svg>