<svg id="Layer_1" data-name="Layer 1" xmlns="http://www.w3.org/2000/svg" viewBox="0 0 50.07546 38.52673"><defs><style>.cls-1{fill:#fff;fill-rule:evenodd;}</style></defs><title>Plant Tracer Assets</title><path class="cls-1" d="M25.035,0A25.03633,25.03633,0,0,1,50.07546,25.03743c0,0.67516-.03547,1.38579-0.08838,2.05795a7.2622,7.2622,0,0,1-7.23317,6.67578H34.91a12.754,12.754,0,0,1-3.84542,3.22016,12.63325,12.63325,0,0,1-15.899-3.22016h-7.844a7.2519,7.2519,0,0,1-7.2337-6.67578C0.02946,26.42322,0,25.71259,0,25.03743A25.03633,25.03633,0,0,1,25.035,0h0ZM18.00086,16.401l-4.286-4.289a1.19885,1.19885,0,0,0-1.69662,1.69421l4.292,4.289A1.19672,1.19672,0,0,0,18.00086,16.401h0ZM13.891,23.9312H7.826a1.19761,1.19761,0,0,0,0,2.39522h6.065a1.19761,1.19761,0,1,0,0-2.39522h0Zm12.34166-9.94884v-6.065a1.19792,1.19792,0,0,0-2.39583,0v6.065a1.19791,1.19791,0,0,0,2.39583,0h0Zm9.95124,12.34406h6.065a1.19762,1.19762,0,0,0,0-2.39522h-6.065a1.19761,1.19761,0,0,0,0,2.39522h0ZM25.035,30.31306a5.18993,5.18993,0,0,0,4.60888-7.565l9.19973-9.20634a1.57459,1.57459,0,0,0-1.10923-2.68561,1.56309,1.56309,0,0,0-1.10984.46353q-4.60648,4.602-9.20634,9.20334a5.1839,5.1839,0,1,0-2.3832,9.79012h0ZM39.61319,10.4622A20.611,20.611,0,0,0,4.42672,25.03743c0,0.58731.02345,1.12487,0.07034,1.71158a2.81636,2.81636,0,0,0,2.82449,2.5949h8.96526v0.006a2.21868,2.21868,0,0,1,1.8494,1.004,8.22354,8.22354,0,0,0,13.71475.13527,2.208,2.208,0,0,1,1.9377-1.14531h8.96526a2.8317,2.8317,0,0,0,1.92575-.7455,2.79941,2.79941,0,0,0,.89814-1.8494c0.0475-.58671.06493-1.12426,0.06493-1.71158A20.55214,20.55214,0,0,0,39.61319,10.4622Z"/></svg>