<svg id="Layer_1" data-name="Layer 1" xmlns="http://www.w3.org/2000/svg" viewBox="0 0 38.88222 42.49528"><defs><style>.cls-1{fill:#d9e021;fill-rule:evenodd;}</style></defs><title>Plant Tracer Assets</title><path class="cls-1" d="M7.96749,1.5277a6.07263,6.07263,0,0,0-4.52827.68123,8.14073,8.14073,0,0,0-1.4667.95961A6.02545,6.02545,0,0,0,.927,4.28944,4.97123,4.97123,0,0,0,.2939,5.53262c-0.86786,2.4861.33609,5.282,1.662,7.38259a11.12851,11.12851,0,0,0,.74935,1.05551,7.71107,7.71107,0,0,0,.84642.89285,6.05306,6.05306,0,0,0,.98675.72741,5.44825,5.44825,0,0,0,1.25781.54265,6.09217,6.09217,0,0,0,4.54966-.68384,8.27991,8.27991,0,0,0,1.47925-.96855,6.16119,6.16119,0,0,0,.95637-0.99188c1.50189,2.07431,3.38053,4.44043,4.6861,6.634-2.10366,5.2973-4.94072,15.10351-5.24337,20.9044-0.10783,1.99557.90581,1.7408,1.44139,0.51515l6.99022-16.04,8.77554,14.80657c0.68189,1.14881,1.716,1.27573,1.3701-.696-1.00683-5.654-4.96935-14.87025-7.652-19.82822L23.3626,19.298c0.85039-1.96293,2.43323-4.48783,3.50259-6.42966,2.39735,2.43709,6.684,3.07112,9.19908.31531a12.84163,12.84163,0,0,0,2.81727-7.08975c0.05809-3.74706-3.5621-6.41944-7.20509-6.06185-4.15626.4125-9.6601,11.28945-11.66788,14.816C19.0494,13.551,11.09663,2.41377,7.96749,1.5277h0ZM33.90625,4.76493c1.51612,0.895.41688,3.08006-.1421,4.29134-0.61336,1.315-1.10856,2.16889-2.83374,1.48492C29.689,10.0451,29.37232,9.54648,29.691,8.214a10.45911,10.45911,0,0,1,1.52447-3.4157c0.75185-.901,1.79573-0.56182,2.69079-0.03341h0ZM8.7596,7.84662c0.80467,1.5364,1.56028,2.872-.35806,3.87312-1.8971.9882-2.54605-.31553-3.38337-1.926C4.59023,8.9714,3.721,7.37988,4.56648,6.51934a3.14994,3.14994,0,0,1,2.24536-.92073C7.64974,5.78226,8.3978,7.15921,8.7596,7.84662Z"/></svg>