<svg id="Layer_1" data-name="Layer 1" xmlns="http://www.w3.org/2000/svg" viewBox="0 0 193.16362 61.95573"><defs><style>.cls-1{fill:#d9e021;}</style></defs><title>Plant Tracer Assets</title><path class="cls-1" d="M190.73878,59.53123H2.42474V2.424h188.314V59.53123ZM6.58207,55.3739H186.58146V6.58133H6.58207V55.3739Z"/><path class="cls-1" d="M193.16362,61.95573H0V0H193.16362V61.95573ZM9.0069,52.95H184.15672V9.00572H9.0069V52.95Z"/><rect class="cls-1" x="164.24161" y="4.15909" width="5.6166" height="34.36276" rx="2.31684" ry="2.31684"/><path class="cls-1" d="M167.04964,40.94594a5.23825,5.23825,0,0,1-5.232-5.232V6.96736a5.23262,5.23262,0,0,1,10.46524,0V35.71391A5.2385,5.2385,0,0,1,167.04964,40.94594Zm0-34.36211a0.38343,0.38343,0,0,0-.38352.38352V35.71391a0.38412,0.38412,0,0,0,.76823,0V6.96736A0.38445,0.38445,0,0,0,167.04964,6.58383Z"/><rect class="cls-1" x="129.00754" y="4.15909" width="5.6166" height="34.36276" rx="2.31684" ry="2.31684"/><path class="cls-1" d="M131.81632,40.94594a5.2385,5.2385,0,0,1-5.23321-5.232V6.96736a5.23262,5.23262,0,0,1,10.46524,0V35.71391A5.23825,5.23825,0,0,1,131.81632,40.94594Zm0-34.36211a0.38445,0.38445,0,0,0-.38471.38352V35.71391a0.38412,0.38412,0,0,0,.76823,0V6.96736A0.38343,0.38343,0,0,0,131.81632,6.58383Z"/><rect class="cls-1" x="93.77346" y="4.15909" width="5.6166" height="34.36276" rx="2.31684" ry="2.31684"/><path class="cls-1" d="M96.58181,40.94594a5.23825,5.23825,0,0,1-5.232-5.232V6.96736a5.232,5.232,0,1,1,10.46406,0V35.71391A5.23825,5.23825,0,0,1,96.58181,40.94594Zm0-34.36211a0.38343,0.38343,0,0,0-.38352.38352V35.71391a0.38352,0.38352,0,0,0,.767,0V6.96736A0.38343,0.38343,0,0,0,96.58181,6.58383Z"/><rect class="cls-1" x="58.53938" y="4.15909" width="5.6166" height="34.36276" rx="2.31684" ry="2.31684"/><path class="cls-1" d="M61.3473,40.94594a5.23825,5.23825,0,0,1-5.232-5.232V6.96736a5.23262,5.23262,0,0,1,10.46524,0V35.71391A5.2385,5.2385,0,0,1,61.3473,40.94594Zm0-34.36211a0.38343,0.38343,0,0,0-.38352.38352V35.71391a0.38412,0.38412,0,0,0,.76823,0V6.96736A0.38445,0.38445,0,0,0,61.3473,6.58383Z"/><rect class="cls-1" x="23.3053" y="4.15909" width="5.6166" height="34.36276" rx="2.31684" ry="2.31684"/><path class="cls-1" d="M26.114,40.94594a5.2385,5.2385,0,0,1-5.23321-5.232V6.96736a5.23262,5.23262,0,0,1,10.46524,0V35.71391A5.23825,5.23825,0,0,1,26.114,40.94594Zm0-34.36211a0.38445,0.38445,0,0,0-.38471.38352V35.71391a0.38412,0.38412,0,0,0,.76823,0V6.96736A0.38343,0.38343,0,0,0,26.114,6.58383Z"/><rect class="cls-1" x="146.62457" y="4.53789" width="5.6166" height="20.61766" rx="2.31684" ry="2.31684"/><path class="cls-1" d="M149.43239,27.57941a5.23825,5.23825,0,0,1-5.232-5.232V7.34615a5.23262,5.23262,0,0,1,10.46524,0V22.34739A5.2385,5.2385,0,0,1,149.43239,27.57941Zm0-20.61679a0.38343,0.38343,0,0,0-.38352.38352V22.34739a0.38412,0.38412,0,0,0,.76823,0V7.34615A0.38445,0.38445,0,0,0,149.43239,6.96262Z"/><rect class="cls-1" x="111.3905" y="4.53789" width="5.6166" height="20.61766" rx="2.31684" ry="2.31684"/><path class="cls-1" d="M114.19906,27.57941a5.2385,5.2385,0,0,1-5.23321-5.232V7.34615a5.23262,5.23262,0,0,1,10.46524,0V22.34739A5.23825,5.23825,0,0,1,114.19906,27.57941Zm0-20.61679a0.38445,0.38445,0,0,0-.38471.38352V22.34739a0.38412,0.38412,0,0,0,.76823,0V7.34615A0.38343,0.38343,0,0,0,114.19906,6.96262Z"/><rect class="cls-1" x="76.15642" y="4.53789" width="5.6166" height="20.61766" rx="2.31684" ry="2.31684"/><path class="cls-1" d="M78.96455,27.57941a5.23825,5.23825,0,0,1-5.232-5.232V7.34615a5.23262,5.23262,0,0,1,10.46524,0V22.34739A5.2385,5.2385,0,0,1,78.96455,27.57941Zm0-20.61679a0.38343,0.38343,0,0,0-.38352.38352V22.34739a0.38412,0.38412,0,0,0,.76823,0V7.34615A0.38445,0.38445,0,0,0,78.96455,6.96262Z"/><rect class="cls-1" x="40.92234" y="4.53789" width="5.6166" height="20.61766" rx="2.31684" ry="2.31684"/><path class="cls-1" d="M43.73123,27.57941a5.2385,5.2385,0,0,1-5.23321-5.232V7.34615a5.23262,5.23262,0,0,1,10.46524,0V22.34739A5.23825,5.23825,0,0,1,43.73123,27.57941Zm0-20.61679a0.38445,0.38445,0,0,0-.38471.38352V22.34739a0.38412,0.38412,0,0,0,.76823,0V7.34615A0.38343,0.38343,0,0,0,43.73123,6.96262Z"/></svg>