<svg id="Layer_1" data-name="Layer 1" xmlns="http://www.w3.org/2000/svg" viewBox="0 0 112.77148 112.87109"><defs><style>.cls-1{fill:#d9e021;}</style></defs><title>Plant Tracer Assets</title><path class="cls-1" d="M110.04746,4.66245a1.94353,1.94353,0,0,0-1.93783-1.93783H27.22a5.58185,5.58185,0,0,0-3.33822,1.33943L4.16939,22.91833c-0.77022.73669-1.41053,1.3489-1.42293,1.36046a0.23522,0.23522,0,0,0-.02253.1195v82.68693A1.94353,1.94353,0,0,0,4.66176,109.023H4.78069c1.06581,0,1.94557.00826,1.955,0.01836a0.02613,0.02613,0,0,0,.0368,0c0.01079-.0101.89163-0.01836,1.95744-0.01836H87.30588a9.65327,9.65327,0,0,0,1.58507-1.338l19.75477-18.85707a5.204,5.204,0,0,0,1.40173-3.27586V4.66245ZM25.28217,83.19679a5.13282,5.13282,0,0,1-1.41389,3.263L8.92319,100.46709c-0.77764.72885-1.41389,0.45315-1.41389-.61266V30.981a1.94353,1.94353,0,0,1,1.93783-1.93783H23.34434A1.94353,1.94353,0,0,1,25.28217,30.981V83.19679ZM30.06753,30.981a1.94353,1.94353,0,0,1,1.93783-1.93783H80.766A1.94353,1.94353,0,0,1,82.70386,30.981V80.76672A1.94353,1.94353,0,0,1,80.766,82.70455H32.00536a1.94353,1.94353,0,0,1-1.93783-1.93783V30.981Zm57.42169-2.18072a5.13282,5.13282,0,0,1,1.41389-3.263l14.94508-14.0073c0.77764-.72885,1.41389-0.45315,1.41389.61266V80.76672a1.94353,1.94353,0,0,1-1.93783,1.93783H89.42705a1.94353,1.94353,0,0,1-1.93783-1.93783V28.80023ZM99.20166,7.51c1.06581,0,1.30158.59633,0.52393,1.32517L84.68422,22.93259a5.67181,5.67181,0,0,1-3.35173,1.32517H32.00536a1.94353,1.94353,0,0,1-1.93783-1.93783V9.44782A1.94353,1.94353,0,0,1,32.00536,7.51h67.1963ZM23.86827,11.04125c0.77764-.72885,1.41389-0.45315,1.41389.61265v10.666a1.94353,1.94353,0,0,1-1.93783,1.93783H11.70479c-1.06581,0-1.30158-.59633-0.52394-1.32518ZM13.83577,104.23768c-1.06581,0-1.30546-.60044-0.53256-1.33432L28.131,88.82423a5.614,5.614,0,0,1,3.3431-1.33432H80.766a1.94353,1.94353,0,0,1,1.93783,1.93783v12.87211a1.94353,1.94353,0,0,1-1.93783,1.93783H13.83577Zm75.06735-3.44214c-0.77764.72885-1.41389,0.45315-1.41389-.61266V89.42774a1.94353,1.94353,0,0,1,1.93783-1.93783h11.73469c1.06581,0,1.30158.59633,0.52393,1.32517Z"/><path class="cls-1" d="M7.33691,110.55469l-1.26758-.02734c-0.33789-.00293-0.793-0.00391-1.28906-0.00391H4.66211A3.443,3.443,0,0,1,1.22363,107.085V24.39844a1.62709,1.62709,0,0,1,.46191-1.18066l0.0918-.085c0.01367-.01562.626-0.60059,1.35352-1.29785L22.84473,2.98047a7.069,7.069,0,0,1,4.375-1.75586h80.88965a3.44215,3.44215,0,0,1,3.43848,3.4375V85.55176a6.70169,6.70169,0,0,1-1.86621,4.36133L89.92676,108.76953c-1.75781,1.67969-2.09082,1.75391-2.62109,1.75391H8.72949c-0.5332,0-1.01855.002-1.36328,0.00488ZM5.625,110.0498l0.03418,0.03711ZM4.22363,24.94043V107.085a0.44485,0.44485,0,0,0,.43848.43848H4.78027c0.96875,0,1.57813,0,1.98438.02637,0.39453-.02637.99219-0.02637,1.96484-0.02637H86.832c0.22266-.18555.57422-0.49512,1.02246-0.92285l19.75488-18.85742a3.7751,3.7751,0,0,0,.93848-2.19141V4.66211a0.444,0.444,0,0,0-.43848-0.4375H27.21973a4.17042,4.17042,0,0,0-2.30078.92383L5.20605,24.002C4.832,24.35938,4.4873,24.68945,4.22363,24.94043Zm-0.418.39746,0.001,0.001c0.00977-.00879.01855-0.01855,0.02734-0.02734Zm76.96,80.39941H13.83594a2.16451,2.16451,0,0,1-1.56641-3.9209L27.09766,87.73633a7.10952,7.10952,0,0,1,4.376-1.74609h49.292a3.44215,3.44215,0,0,1,3.43848,3.4375V102.2998A3.44215,3.44215,0,0,1,80.76563,105.7373Zm-66.50977-1.66016h0Zm1.40039-1.33984H80.76563a0.444,0.444,0,0,0,.43848-0.4375V89.42773a0.444,0.444,0,0,0-.43848-0.4375h-49.292a4.215,4.215,0,0,0-2.31055.92285Zm-1.93848-.00781h0Zm74.39746-.02734a2.04822,2.04822,0,0,1-.80762-0.16406,2.34544,2.34544,0,0,1-1.31836-2.35547V89.42773a3.44131,3.44131,0,0,1,3.4375-3.4375h11.73535a2.1582,2.1582,0,0,1,1.5498,3.91895l-12.7832,11.98145A2.63527,2.63527,0,0,1,88.11523,102.70215Zm1.31152-13.71191a0.44315,0.44315,0,0,0-.4375.4375v9.23145l10.31641-9.66895H89.42676ZM8.13574,102.374A2.04266,2.04266,0,0,1,7.3291,102.21a2.34462,2.34462,0,0,1-1.31934-2.35547v-68.874a3.44131,3.44131,0,0,1,3.4375-3.4375H23.34473a3.44131,3.44131,0,0,1,3.4375,3.4375v52.2168a6.63162,6.63162,0,0,1-1.8877,4.35645L9.94824,101.56152A2.62752,2.62752,0,0,1,8.13574,102.374ZM9.44727,30.543a0.44315,0.44315,0,0,0-.4375.4375V98.3291l13.833-12.96387a3.70227,3.70227,0,0,0,.93945-2.168V30.98047a0.44315,0.44315,0,0,0-.4375-0.4375H9.44727Zm93.877,53.66113H89.42676a3.44131,3.44131,0,0,1-3.4375-3.4375V28.7998a6.62485,6.62485,0,0,1,1.88867-4.35742l14.94531-14.00684a2.22563,2.22563,0,0,1,3.93848,1.707v68.624A3.44131,3.44131,0,0,1,103.32422,84.2041Zm0.4375-70.53613-13.833,12.96387a3.69356,3.69356,0,0,0-.93945,2.168V80.7666a0.44315,0.44315,0,0,0,.4375.4375h13.89746a0.44315,0.44315,0,0,0,.4375-0.4375V13.668Zm1.19531-1.11133h0ZM80.76563,84.2041H32.00488a3.44131,3.44131,0,0,1-3.4375-3.4375V30.98047a3.44131,3.44131,0,0,1,3.4375-3.4375H80.76563a3.44215,3.44215,0,0,1,3.43848,3.4375V80.7666A3.44215,3.44215,0,0,1,80.76563,84.2041ZM32.00488,30.543a0.44315,0.44315,0,0,0-.4375.4375V80.7666a0.44315,0.44315,0,0,0,.4375.4375H80.76563a0.444,0.444,0,0,0,.43848-0.4375V30.98047a0.444,0.444,0,0,0-.43848-0.4375H32.00488ZM81.332,25.75781H32.00488a3.44131,3.44131,0,0,1-3.4375-3.4375V9.44824a3.44215,3.44215,0,0,1,3.4375-3.43848H99.20215a2.281,2.281,0,0,1,2.34766,1.33789,2.28146,2.28146,0,0,1-.79883,2.582L85.71,24.02734A7.16892,7.16892,0,0,1,81.332,25.75781ZM32.00488,9.00977a0.444,0.444,0,0,0-.4375.43848V22.32031a0.44315,0.44315,0,0,0,.4375.4375H81.332a4.20308,4.20308,0,0,0,2.32715-.91992L97.3457,9.00977H32.00488ZM99.32031,9.01758h0ZM23.34473,25.75781H11.70508a2.15856,2.15856,0,0,1-1.5498-3.91992l12.6875-11.8916a2.22624,2.22624,0,0,1,3.93945,1.708v10.666A3.44131,3.44131,0,0,1,23.34473,25.75781Zm-9.78418-3h9.78418a0.44315,0.44315,0,0,0,.4375-0.4375V13.17773ZM11.58594,22.75h0Z"/><path class="cls-1" d="M6.77295,110.77246l-0.54269-.52c-0.34785-.00359-0.87021-0.006-1.45-0.006a3.19344,3.19344,0,0,1-3.28-3.16169V23.85654l0.42315-.48411,21.11218-20.193A6.7672,6.7672,0,0,1,27.22052,1.5h80.889a3.16623,3.16623,0,0,1,3.16169,3.16288v80.889a6.39565,6.39565,0,0,1-1.77987,4.16219L89.73587,108.57064c-1.75477,1.67587-2.02372,1.67587-2.43014,1.67587H8.72973c-0.57137,0-1.08776.00239-1.4368,0.006ZM3.94835,24.82357v82.26125a0.71472,0.71472,0,0,0,.71362.71362c1.02561,0,1.64838,0,2.04882.0263,0.367-.0263.96584-0.0263,2.01894-0.0263H86.93159c0.22951-.18767.62517-0.53193,1.11406-0.99931l19.75547-18.85657a4.05116,4.05116,0,0,0,1.022-2.39069V4.66288a0.72359,0.72359,0,0,0-.71362-0.71482h-80.889a4.44667,4.44667,0,0,0-2.49229,1.0005L4.3966,24.39444C4.22686,24.557,4.07506,24.70284,3.94835,24.82357Zm76.81765,80.638H13.83624a1.89416,1.89416,0,0,1-1.37584-3.44618L27.28865,87.93659a6.79123,6.79123,0,0,1,4.1849-1.67109H80.766a3.166,3.166,0,0,1,3.16169,3.16169v12.87267A3.166,3.166,0,0,1,80.766,105.46154Zm-65.80135-2.44807H80.766a0.71472,0.71472,0,0,0,.71362-0.71362V89.42719a0.72255,0.72255,0,0,0-.71362-0.71362H31.47356a4.47732,4.47732,0,0,0-2.49947.99811Zm73.14675-.58811a1.75608,1.75608,0,0,1-.6933-0.13986,2.08327,2.08327,0,0,1-1.15231-2.10261V89.42719a3.166,3.166,0,0,1,3.16169-3.16169h11.7347a1.88727,1.88727,0,0,1,1.3603,3.44259L89.73945,101.689A2.36767,2.36767,0,0,1,88.11139,102.42537Zm0.618-2.06795h0Zm0.69808-11.64386a0.72255,0.72255,0,0,0-.71362.71362V99.296l11.29-10.58239H89.42747Zm11.54464-.92878h0ZM8.13086,102.09665a1.75608,1.75608,0,0,1-.6933-0.13986,2.08327,2.08327,0,0,1-1.15231-2.10261V30.98079a3.166,3.166,0,0,1,3.16169-3.16169H23.344a3.166,3.166,0,0,1,3.16169,3.16169V83.197a6.32814,6.32814,0,0,1-1.799,4.15621L9.76012,101.36031A2.37207,2.37207,0,0,1,8.13086,102.09665ZM9.44694,30.26717a0.72255,0.72255,0,0,0-.71362.71362V98.96843L23.032,85.56742A3.97828,3.97828,0,0,0,24.05764,83.197V30.98079a0.72255,0.72255,0,0,0-.71362-0.71362H9.44694ZM103.32455,83.9286H89.42747a3.166,3.166,0,0,1-3.16169-3.16169V28.80048a6.32814,6.32814,0,0,1,1.799-4.15621l14.94659-14.00705a1.95422,1.95422,0,0,1,3.47487,1.50494V80.76691A3.166,3.166,0,0,1,103.32455,83.9286Zm0.71362-70.8995-14.29872,13.401a3.97828,3.97828,0,0,0-1.02561,2.37037V80.76691a0.72255,0.72255,0,0,0,.71362.71362h13.89708a0.72255,0.72255,0,0,0,.71362-0.71362V13.0291Zm-0.01554-1.06027h0ZM80.766,83.9286H32.00549a3.166,3.166,0,0,1-3.16169-3.16169V30.98079a3.166,3.166,0,0,1,3.16169-3.16169H80.766a3.166,3.166,0,0,1,3.16169,3.16169V80.76691A3.166,3.166,0,0,1,80.766,83.9286ZM32.00549,30.26717a0.72255,0.72255,0,0,0-.71362.71362V80.76691a0.72255,0.72255,0,0,0,.71362.71362H80.766a0.72255,0.72255,0,0,0,.71362-0.71362V30.98079a0.72255,0.72255,0,0,0-.71362-0.71362H32.00549Zm49.32711-4.785H32.00549a3.166,3.166,0,0,1-3.16169-3.16169V9.44785a3.166,3.166,0,0,1,3.16169-3.16169H99.2018a2.01759,2.01759,0,0,1,2.09185,1.16427,2.01882,2.01882,0,0,1-.73155,2.27833l-15.041,14.0967A6.85121,6.85121,0,0,1,81.33259,25.48221ZM32.00549,8.73423a0.71472,0.71472,0,0,0-.71362.71362V22.32052a0.72255,0.72255,0,0,0,.71362.71362H81.33259a4.4686,4.4686,0,0,0,2.515-.99453L98.04232,8.73423H32.00549ZM23.344,25.48221H11.70494a1.88727,1.88727,0,0,1-1.3603-3.44259L23.032,10.14832a1.95352,1.95352,0,0,1,3.47367,1.50613V22.32052A3.166,3.166,0,0,1,23.344,25.48221ZM12.86323,23.03414H23.344a0.72255,0.72255,0,0,0,.71362-0.71362V12.5414Zm-1.34237-.01554h0Z"/><path class="cls-1" d="M6.79395,112.87109L5.623,111.748c-0.25391-.001-0.54-0.002-0.84277-0.002A4.67177,4.67177,0,0,1,0,107.085V23.293l0.88672-1.00488L21.998,2.0957A8.19062,8.19062,0,0,1,27.2207,0h80.88867a4.66809,4.66809,0,0,1,4.66211,4.66309V85.55176a7.82114,7.82114,0,0,1-2.24414,5.24707L90.77246,109.65527c-1.78027,1.7002-2.42871,2.09082-3.4668,2.09082H8.72949c-0.29,0-.56543.001-0.81152,0.002Zm-1.3457-6.57129c0.5498,0.001.94824,0.00586,1.25977,0.02246,0.416-.02344,1.00977-0.02344,2.02148-0.02344h2.78027a3.16609,3.16609,0,0,1-1.291-3.38574,3.6519,3.6519,0,0,1-2.08789.68359,3.28446,3.28446,0,0,1-1.28418-.26074,3.38737,3.38737,0,0,1-1.39844-1.16211v4.126Zm77.71191-.001H86.376c0.18066-.16016.39453-0.35645,0.63379-0.584l2.002-1.91211a3.05879,3.05879,0,0,1-2.19238-.14258,3.36742,3.36742,0,0,1-1.39551-1.165A4.6679,4.6679,0,0,1,83.16016,106.29883Zm-64.4375-4.78516H79.97949V90.21387H31.47363a3.18509,3.18509,0,0,0-1.46777.58691Zm71.49121-11.2998V95.834L96.21,90.21387H90.21387ZM10.2334,31.76758V95.50684L22.00684,84.47266a2.65512,2.65512,0,0,0,.55078-1.27539V31.76758H10.2334Zm93.251,53.6582a3.149,3.149,0,0,1,1.30371,3.31836l1.97656-1.88672a2.72868,2.72868,0,0,0,.55859-1.30566V83.16113A4.66429,4.66429,0,0,1,103.48438,85.42578Zm-20.99121-.3291a4.69361,4.69361,0,0,1,2.60352,2.60449,4.69361,4.69361,0,0,1,2.60352-2.60449,4.68768,4.68768,0,0,1-2.60352-2.60449A4.68768,4.68768,0,0,1,82.49316,85.09668Zm-54.4873-1.9375v0.03809a7.3159,7.3159,0,0,1-.61328,2.793,8.76421,8.76421,0,0,1,2.55566-1.041A4.68716,4.68716,0,0,1,28.00586,83.15918Zm62.208-3.17871h12.32422V16.49121L90.76465,27.52441a2.65447,2.65447,0,0,0-.55078,1.27637V79.98047Zm-57.42187,0h47.1875V31.76758H32.792V79.98047Zm-7.7207-53.33008a4.69361,4.69361,0,0,1,2.60352,2.60449,4.69361,4.69361,0,0,1,2.60352-2.60449A4.68768,4.68768,0,0,1,27.6748,24.0459,4.68768,4.68768,0,0,1,25.07129,26.65039Zm57.76465,0.1543a4.69562,4.69562,0,0,1,1.93359,1.79,7.587,7.587,0,0,1,.74512-2.88965A8.81921,8.81921,0,0,1,82.83594,26.80469ZM5.44824,25.46387v3.123a4.668,4.668,0,0,1,3.93262-2.26758,3.1519,3.1519,0,0,1-1.28711-3.38477ZM32.792,21.53418H81.333a3.136,3.136,0,0,0,1.49023-.58984l11.4248-10.71H32.792v11.2998Zm-16.13477,0h5.90039V16.00293ZM104.626,8.40332a3.20854,3.20854,0,0,1,2.69727,1.418v-4.373h-5.7959A3.1624,3.1624,0,0,1,102.79,8.92871,3.5325,3.5325,0,0,1,104.626,8.40332ZM24.64453,7.91406a3.19986,3.19986,0,0,1,2.7002,1.42383,4.66636,4.66636,0,0,1,2.26855-3.88965H27.2207a3.15385,3.15385,0,0,0-1.45605.585l-2.126,2.0332A3.40526,3.40526,0,0,1,24.64453,7.91406Z"/></svg>