<svg id="Layer_1" data-name="Layer 1" xmlns="http://www.w3.org/2000/svg" viewBox="0 0 93.04013 93.04208"><defs><style>.cls-1{fill:#d9e021;fill-rule:evenodd;}</style></defs><title>Plant Tracer Assets</title><path class="cls-1" d="M75.61778,1.37809A41.68094,41.68094,0,0,1,84.77528,8.26l0.1485,0.16087A41.59627,41.59627,0,0,1,91.664,17.43121a10.60791,10.60791,0,0,1-1.77237,12.76962l-0.01375.01237h0.01375l-52.7175,52.7175a2.69992,2.69992,0,0,1-1.26225.71225L3.444,92.93521A2.70081,2.70081,0,0,1,.1,91.08171a2.82506,2.82506,0,0,1,0-1.4905L9.406,57.12334a2.62775,2.62775,0,0,1,.75212-1.28975L62.8344,3.15734A10.61261,10.61261,0,0,1,75.61778,1.37809h0ZM10.40027,73.31671a31.24454,31.24454,0,0,1,9.61388,9.25237l12.0175-3.45125L30.031,70.685l-10.23137.9405-0.41662.02612h0a2.685,2.685,0,0,1-2.7665-1.2485L12.937,64.42734l-2.53676,8.88937h0Zm77.169-51.45525-50.824,50.82412,0.389,2.618L86.065,26.38659h0a5.32141,5.32141,0,0,0,1.53037-3.00712,5.24985,5.24985,0,0,0-.02613-1.518h0Zm-68.589,42.042L75.34965,7.52709c-0.76587-.5034-1.55787-0.9735-2.36362-1.43a5.35727,5.35727,0,0,0-3.3165-.6435A5.2743,5.2743,0,0,0,66.6624,6.984L15.46153,58.18346Z"/></svg>